<svg xmlns="http://www.w3.org/2000/svg" width="347.975" height="347.714" viewBox="0 0 347.975 347.714">
  <g id="Group_3124" data-name="Group 3124" transform="translate(-39.316 -16.127)">
    <circle id="Ellipse_599" data-name="Ellipse 599" cx="133.98" cy="133.98" r="133.98" transform="translate(60.023 61.5)" fill="#a8c1ff"/>
    <g id="Group_3121" data-name="Group 3121">
      <path id="Path_4813" data-name="Path 4813" d="M304.75,266.526c-.151-2.572-.016-5.175-.031-7.762-.015-6.184-2.9-10.546-8.635-12.758-1.85-.722-2.257-1.67-2.241-3.445.09-6.288.045-12.592.03-18.9-.03-16.068-10.546-26.614-26.644-26.674-9.673-.03-19.346.045-29.02-.03a13.069,13.069,0,0,1-13.389-12.817c-.181-4.047.03-8.094-.105-12.141-.076-2.151.511-3.084,2.828-3.581a12.787,12.787,0,0,0,10.26-12.561q.158-5.552,0-11.133a12.829,12.829,0,0,0-11.539-12.818,57.828,57.828,0,0,0-14.141.03c-6.71.843-11.268,6.078-11.419,12.908-.075,3.49-.045,6.981,0,10.456.075,6.6,3.611,11.4,10.05,13.073,2.046.527,2.407,1.46,2.392,3.235-.03,4.393-.151,8.786.15,13.163.9,13.224,10.05,22.491,23.273,23.635,2.107.18,2.633.948,2.588,2.888-.09,4.5-.015,9-.03,13.5-.015,8.184-3.791,11.96-11.975,11.96-21.032.015-42.079-.075-63.11.045a24.593,24.593,0,0,0-24.522,21.288c-.572,3.866-.316,7.853-.437,11.779.045,1.459,0,2.934.151,4.378.225,2.377-.3,3.52-3.129,3.806-6.229.647-10.787,6.108-10.983,12.592-.12,3.6-.09,7.206-.03,10.8.136,7.552,5.22,12.968,12.818,13.419a94.128,94.128,0,0,0,11.478,0c7.748-.451,12.743-5.9,12.833-13.72.03-3.159.03-6.3,0-9.463-.09-6.619-3.159-11.057-9.433-13.254-1.519-.526-2.136-1.143-2.106-2.783.106-4.724-.045-9.463.076-14.186a13.207,13.207,0,0,1,13.148-13.134c12.5-.135,24.988-.015,37.475-.075,1.881,0,2.633.571,2.573,2.5-.091,4.047-.106,8.109.015,12.156.045,1.925-.572,2.632-2.543,3.069-6.363,1.414-10.155,6.288-10.275,12.847q-.112,5.237-.015,10.471c.151,7.643,5.055,12.908,12.758,13.4a91.571,91.571,0,0,0,11.478,0c7.613-.5,12.622-5.777,12.863-13.4.1-3.264.075-6.529.015-9.794-.12-7.161-3.761-11.9-10.726-13.584-1.791-.422-2.092-1.219-2.077-2.739.046-4.046.136-8.108-.03-12.155-.09-2.332.873-2.859,2.964-2.768,3.49.135,6.98.075,10.471.015,12.5-.2,21.633-9.373,21.784-21.889.06-5.055.09-10.125-.03-15.18-.046-2.091.692-2.738,2.723-2.693,5.069.1,10.139-.045,15.194.06,8.124.151,13.721,5.792,13.826,13.946.09,6.514-.045,13.043.06,19.573.03,2.076-.527,2.813-2.738,3.1-7.778,1.038-12.02,6.153-12.081,14.1-.03,3.265-.075,6.529.016,9.794a12.97,12.97,0,0,0,13.118,13.043c4.619.075,9.222-.03,13.841-.045C301.921,279.479,305.231,274.289,304.75,266.526Zm-90.9-108.889a2.887,2.887,0,0,1-2.889-2.874V144.594a2.877,2.877,0,0,1,2.889-2.874h10.155a2.877,2.877,0,0,1,2.888,2.874v10.169a2.886,2.886,0,0,1-2.888,2.874Zm-62.614,132.8V300.6a2.874,2.874,0,0,1-2.874,2.874H138.211a2.887,2.887,0,0,1-2.889-2.874V290.432a2.877,2.877,0,0,1,2.889-2.874h10.154A2.864,2.864,0,0,1,151.239,290.432Zm66.194-11.509v10.17a2.864,2.864,0,0,1-2.873,2.873H204.4a2.876,2.876,0,0,1-2.888-2.873v-10.17a2.886,2.886,0,0,1,2.888-2.874H214.56A2.873,2.873,0,0,1,217.433,278.923Zm77.117-9.9a2.864,2.864,0,0,1-2.874,2.873H281.521a2.877,2.877,0,0,1-2.888-2.873v-10.17a2.886,2.886,0,0,1,2.888-2.874h10.155a2.874,2.874,0,0,1,2.874,2.874Z" fill="#fff" stroke="#707070" stroke-width="0.5"/>
      <g id="Group_3120" data-name="Group 3120">
        <path id="Path_4814" data-name="Path 4814" d="M218.923,27.369a168.111,168.111,0,1,0,168.118,168.1A168.108,168.108,0,0,0,218.923,27.369Zm39.145,291.27c-7.763,0-6.981.993-6.966-7.025.015-7.552-1.023-7.026,7.011-7.026,8.018,0,6.875-.526,6.98,7.086C265.033,319.632,265.875,318.624,258.068,318.639Zm9.327,18.129c-1.113.376-2.708,2-3.5-.331-.963-2.889.09-5.943,1.985-6.454,7.192-1.971,10.592-6.214,10.727-13.555.06-3.716.12-7.432-.1-11.133a12.506,12.506,0,0,0-11.253-11.96,58.217,58.217,0,0,0-14.473.015,12.361,12.361,0,0,0-11.042,11.419,93.663,93.663,0,0,0-.091,13.148,12.388,12.388,0,0,0,10.14,11.9c2,.467,2.573,1.264,2.513,3.129-.316,10.08,1.88,8.2-7.989,9.7-52.73,8.033-97.952-7.086-134.72-45.689C86.158,272.379,73.31,242.606,70.241,208.7a149.841,149.841,0,0,1,2.633-44.275c.526-2.573,1.414-3.521,4.122-3.506,14.623.136,29.261.106,43.884.015,2.482-.015,3.6.467,3.52,3.31-.225,8.876-.15,17.767-.195,26.658.255,2.889,0,5.853,1.218,8.621,2.753,6.213,7.4,9.808,14.232,10.275,3.024.2,6.063.1,9.1.075,1.489-.015,2.331.226,2.813,2.016,1.956,7.191,6.529,10.516,14.066,10.576,3.039.03,6.093.075,9.117-.015,7.943-.241,13.314-5.506,13.6-13.4.135-3.476.135-6.981,0-10.456-.316-7.989-5.672-13.134-13.645-13.239-3.49-.045-6.981-.06-10.471.015-6.454.136-11.509,4.122-12.682,10.441-.421,2.332-1.444,2.633-3.34,2.557-2.136-.09-4.287,0-6.424-.03-4.272-.06-5.912-1.64-5.927-5.912-.045-9.794-.015-19.588-.015-29.381q0-22.116,0-44.23c0-5.491,1.444-6.89,7.055-6.906,3.491-.015,6.981.061,10.471-.03,1.505-.03,2.076.512,2.467,2,2.122,8.38,6.229,11.494,14.924,11.509,3.039,0,6.078.06,9.117-.03A12.881,12.881,0,0,0,192.7,112.715c.135-3.927.135-7.883,0-11.81a12.891,12.891,0,0,0-12.818-12.637c-3.716-.1-7.432-.09-11.148-.015a12.705,12.705,0,0,0-12.426,9.568c-.557,2.106-1.414,2.678-3.415,2.6-3.821-.121-7.658-.06-11.479-.03-10.11.09-17,6.905-17.06,16.939-.06,9.569-.105,19.137.03,28.7.045,2.587-.617,3.505-3.355,3.475q-20.422-.2-40.86,0c-2.933.03-3.069-.873-2.2-3.295,12.08-33.232,33.022-59.334,63.11-77.944C167.306,52.057,196.01,44.49,226.7,46.551c52.82,3.535,93.184,28.433,120.865,73.505,11.539,18.776,17.828,39.446,20.009,61.4.3,3.084-.632,3.806-3.6,3.791-17.33-.121-34.661-.045-51.992-.075-5.988,0-7.267-1.339-7.267-7.417q0-25.478,0-50.985c-.015-11.253-6.529-17.737-17.842-17.782-7.432-.03-14.864.03-22.3-.015-4.95-.015-6.469-1.565-6.5-6.439-.015-1.459.09-2.934-.031-4.378-.391-4.588-.511-8.274,5.642-9.839,4.859-1.218,6.966-6.108,7.161-11.223.135-3.7.12-7.431,0-11.132A12.979,12.979,0,0,0,257.917,53.05c-3.821-.106-7.657-.106-11.479,0a12.856,12.856,0,0,0-12.667,12.772c-.09,3.7-.075,7.432,0,11.133.121,6.379,3.821,11.163,10.08,12.652,2.241.527,2.858,1.489,2.753,3.641-.166,3.49-.075,6.98-.03,10.47.12,9.7,6.83,16.579,16.548,16.76,7.883.135,15.767.015,23.635.03,4.949.03,6.454,1.5,6.454,6.439.015,17.331-.015,34.661.015,51.992,0,10.952,6.634,17.617,17.647,17.767,2.918.046,5.852.091,8.77,0,1.971-.075,2.783.5,2.738,2.648-.135,6.981-.105,13.961-.03,20.942.015,1.79-.3,2.693-2.407,3.144-6.484,1.429-10.29,6.409-10.44,13.133-.061,3.385-.076,6.755,0,10.14.18,7.6,5.265,13.059,12.817,13.45a82.481,82.481,0,0,0,14.157-.226c7.371-2.723,10.124-6.634,10.155-14.442,0-3.039.045-6.078-.016-9.117-.12-6.544-3.9-11.464-10.23-12.923-1.895-.436-2.617-1.008-2.587-3.009.105-6.74.09-13.495.015-20.249-.015-2.483.767-3.581,3.52-3.536q13.676.249,27.335,0c2.814-.045,3.641.737,3.536,3.581-1.129,29.306-9.794,56.145-26.538,80.215A147.719,147.719,0,0,1,267.395,336.768ZM169.939,196.842c7.432.105,6.92-1.113,6.935,7.086,0,7.687.572,7.025-7.086,7.025-8.078,0-6.995.557-6.995-7C162.793,195.8,161.785,196.947,169.939,196.842Zm11.3-90.446v.331c-.075,8.184.858,7.056-7.161,7.146-7.191-.075-6.95,1.083-6.935-6.8.03-8.47-.542-7.281,7.416-7.311C181.959,99.732,181.192,99.01,181.237,106.4ZM335.124,241.643c-.106,7.462,1.188,7.071-6.936,7.071-8.078.015-7.161.527-7.176-7.251-.015-7.718-.616-6.77,6.83-6.83h.346C336.132,234.693,335.033,233.79,335.124,241.643Zm-82.8-177.1c7.732,0,7.04-1.038,7.055,6.936,0,7.793.8,7.146-7.3,7.161-7.778.015-6.83.451-6.815-6.89C245.295,63.521,244.242,64.559,252.321,64.543Z" fill="#fff" stroke="#707070" stroke-width="0.5"/>
      </g>
    </g>
    <circle id="Ellipse_97" data-name="Ellipse 97" cx="8.212" cy="8.212" r="8.212" transform="translate(311.819 16.127)" fill="#3880ff"/>
    <circle id="Ellipse_97-2" data-name="Ellipse 97" cx="10.076" cy="10.076" r="10.076" transform="translate(58.947 311.172)" fill="#3880ff"/>
    <circle id="Ellipse_97-3" data-name="Ellipse 97" cx="16.716" cy="16.716" r="16.716" transform="translate(334.78 28.858)" fill="#3880ff"/>
    <g id="Group_3123" data-name="Group 3123">
      <path id="Path_4815" data-name="Path 4815" d="M293.246,261.3c-.15-2.573-.015-5.176-.03-7.763-.015-6.183-2.9-10.546-8.635-12.758-1.851-.722-2.257-1.67-2.242-3.445.09-6.288.045-12.592.03-18.9-.03-16.067-10.546-26.613-26.643-26.674-9.673-.03-19.347.046-29.02-.03a13.069,13.069,0,0,1-13.389-12.817c-.181-4.047.03-8.094-.106-12.141-.075-2.151.512-3.084,2.829-3.58a12.79,12.79,0,0,0,10.26-12.562q.157-5.551,0-11.133a12.83,12.83,0,0,0-11.539-12.818,57.787,57.787,0,0,0-14.142.031c-6.709.842-11.268,6.077-11.418,12.907-.075,3.491-.045,6.981,0,10.456.075,6.6,3.61,11.4,10.049,13.074,2.046.526,2.407,1.459,2.392,3.234-.03,4.393-.15,8.786.151,13.164.9,13.223,10.049,22.491,23.273,23.634,2.106.181,2.633.948,2.588,2.888-.091,4.5-.015,9-.03,13.495-.015,8.184-3.792,11.96-11.976,11.96-21.031.015-42.078-.075-63.11.045a24.6,24.6,0,0,0-24.522,21.288c-.571,3.866-.316,7.853-.436,11.779.045,1.46,0,2.934.15,4.378.226,2.377-.3,3.521-3.129,3.806-6.228.647-10.787,6.108-10.982,12.592-.12,3.6-.09,7.207-.03,10.8.135,7.552,5.22,12.968,12.818,13.42a94.535,94.535,0,0,0,11.478,0c7.748-.452,12.743-5.9,12.833-13.721.03-3.159.03-6.3,0-9.463-.09-6.619-3.159-11.057-9.433-13.253-1.519-.527-2.136-1.144-2.106-2.784.1-4.724-.045-9.462.075-14.186A13.208,13.208,0,0,1,152.4,243.094c12.5-.135,24.988-.015,37.475-.075,1.88,0,2.633.572,2.572,2.5-.09,4.047-.1,8.109.015,12.156.046,1.926-.571,2.633-2.542,3.069-6.364,1.414-10.155,6.288-10.275,12.848q-.112,5.235-.015,10.47c.15,7.643,5.055,12.908,12.757,13.4a91.217,91.217,0,0,0,11.479,0c7.612-.5,12.622-5.777,12.863-13.4.105-3.264.075-6.529.015-9.793-.121-7.161-3.761-11.9-10.727-13.585-1.79-.421-2.091-1.219-2.076-2.738.045-4.047.135-8.109-.03-12.156-.09-2.332.873-2.858,2.964-2.768,3.49.135,6.98.075,10.47.015,12.5-.2,21.634-9.372,21.784-21.889.061-5.055.091-10.125-.03-15.18-.045-2.091.692-2.738,2.723-2.693,5.07.106,10.14-.045,15.195.06,8.124.151,13.72,5.792,13.825,13.946.091,6.515-.045,13.044.061,19.573.03,2.076-.527,2.813-2.738,3.1-7.778,1.038-12.021,6.153-12.081,14.1-.03,3.265-.075,6.529.015,9.794a12.971,12.971,0,0,0,13.119,13.043c4.618.076,9.222-.03,13.84-.045C290.418,274.251,293.728,269.06,293.246,261.3Zm-90.9-108.89a2.886,2.886,0,0,1-2.888-2.874V139.365a2.877,2.877,0,0,1,2.888-2.874H212.5a2.877,2.877,0,0,1,2.889,2.874v10.169a2.887,2.887,0,0,1-2.889,2.874ZM139.736,285.2v10.17a2.873,2.873,0,0,1-2.874,2.873H126.707a2.886,2.886,0,0,1-2.888-2.873V285.2a2.877,2.877,0,0,1,2.888-2.874h10.155A2.864,2.864,0,0,1,139.736,285.2Zm66.194-11.509v10.17a2.863,2.863,0,0,1-2.874,2.873H192.9a2.876,2.876,0,0,1-2.889-2.873v-10.17a2.886,2.886,0,0,1,2.889-2.873h10.154A2.873,2.873,0,0,1,205.93,273.694Zm77.116-9.9a2.862,2.862,0,0,1-2.873,2.873H270.018a2.875,2.875,0,0,1-2.888-2.873v-10.17a2.885,2.885,0,0,1,2.888-2.873h10.155a2.872,2.872,0,0,1,2.873,2.873Z" fill="#373f54"/>
      <g id="Group_3122" data-name="Group 3122">
        <path id="Path_4816" data-name="Path 4816" d="M207.419,22.141a168.11,168.11,0,1,0,168.119,168.1A168.108,168.108,0,0,0,207.419,22.141Zm39.145,291.27c-7.763,0-6.98.992-6.965-7.026.015-7.552-1.023-7.026,7.01-7.026s6.876-.526,6.981,7.086C253.53,314.4,254.372,313.4,246.564,313.411Zm9.328,18.128c-1.114.376-2.708,2-3.506-.331-.963-2.889.091-5.943,1.986-6.454,7.191-1.971,10.591-6.213,10.727-13.555.06-3.716.12-7.432-.106-11.133a12.506,12.506,0,0,0-11.253-11.96,58.306,58.306,0,0,0-14.472.015,12.364,12.364,0,0,0-11.043,11.419,93.515,93.515,0,0,0-.09,13.148,12.386,12.386,0,0,0,10.14,11.9c2,.467,2.572,1.264,2.512,3.13-.316,10.079,1.881,8.2-7.988,9.7-52.73,8.034-97.953-7.086-134.721-45.689-23.423-24.582-36.271-54.355-39.34-88.264a149.841,149.841,0,0,1,2.633-44.275c.526-2.573,1.414-3.52,4.122-3.5,14.623.135,29.261.1,43.884.015,2.482-.015,3.6.466,3.52,3.309-.226,8.876-.151,17.768-.2,26.659.256,2.888,0,5.852,1.219,8.62,2.753,6.213,7.4,9.809,14.232,10.275,3.024.2,6.062.105,9.1.075,1.49-.015,2.332.226,2.814,2.016,1.955,7.191,6.529,10.516,14.066,10.576,3.039.03,6.093.076,9.117-.015,7.943-.241,13.314-5.506,13.6-13.4.135-3.475.135-6.981,0-10.456-.316-7.988-5.672-13.133-13.645-13.239-3.491-.045-6.981-.06-10.471.015-6.454.136-11.509,4.122-12.682,10.441-.422,2.332-1.445,2.633-3.34,2.558-2.136-.091-4.288,0-6.424-.031-4.273-.06-5.912-1.639-5.928-5.912-.045-9.794-.015-19.587-.015-29.381q0-22.115,0-44.23c0-5.491,1.445-6.89,7.056-6.9,3.49-.015,6.981.06,10.471-.03,1.5-.03,2.076.511,2.467,2,2.121,8.38,6.228,11.494,14.924,11.509,3.039,0,6.078.06,9.117-.03A12.879,12.879,0,0,0,181.2,107.486c.136-3.926.136-7.883,0-11.81A12.89,12.89,0,0,0,168.38,83.039c-3.716-.105-7.432-.09-11.148-.015a12.705,12.705,0,0,0-12.426,9.568c-.557,2.107-1.415,2.678-3.416,2.6-3.821-.12-7.657-.06-11.478-.03-10.11.09-17,6.9-17.06,16.94-.06,9.568-.106,19.136.03,28.7.045,2.588-.617,3.5-3.355,3.475q-20.422-.2-40.86,0c-2.934.03-3.069-.872-2.2-3.295,12.08-33.232,33.022-59.334,63.11-77.943C155.8,46.828,184.507,39.261,215.2,41.322c52.82,3.535,93.184,28.433,120.865,73.506,11.539,18.775,17.827,39.445,20.009,61.4.3,3.084-.632,3.806-3.6,3.791-17.331-.12-34.662-.045-51.993-.075-5.987,0-7.266-1.339-7.266-7.417q0-25.478,0-50.985c-.015-11.253-6.529-17.737-17.842-17.782-7.432-.03-14.864.03-22.3-.015-4.949-.015-6.469-1.564-6.5-6.439-.015-1.459.091-2.933-.03-4.378-.391-4.588-.511-8.274,5.642-9.839,4.859-1.218,6.965-6.107,7.161-11.222.135-3.7.12-7.432,0-11.133a12.979,12.979,0,0,0-12.938-12.908c-3.821-.1-7.658-.1-11.479,0a12.856,12.856,0,0,0-12.667,12.772c-.09,3.7-.075,7.432,0,11.133.12,6.379,3.821,11.163,10.079,12.652,2.242.527,2.859,1.49,2.754,3.641-.166,3.49-.076,6.98-.031,10.471.121,9.7,6.831,16.578,16.549,16.759,7.883.135,15.766.015,23.634.03,4.95.03,6.454,1.5,6.454,6.439.015,17.331-.015,34.662.015,51.992,0,10.953,6.635,17.617,17.647,17.768,2.919.045,5.852.09,8.771,0,1.971-.076,2.783.5,2.738,2.647-.135,6.981-.1,13.961-.03,20.942.015,1.79-.3,2.693-2.407,3.144-6.484,1.429-10.29,6.409-10.441,13.134-.06,3.385-.075,6.755,0,10.139.181,7.6,5.266,13.059,12.818,13.45a82.368,82.368,0,0,0,14.156-.226c7.372-2.723,10.125-6.634,10.155-14.442,0-3.039.045-6.078-.015-9.117-.12-6.544-3.9-11.464-10.23-12.923-1.895-.436-2.618-1.008-2.588-3.009.106-6.739.091-13.494.016-20.249-.016-2.482.767-3.581,3.52-3.535q13.676.248,27.335,0c2.813-.046,3.641.737,3.535,3.58-1.128,29.306-9.793,56.145-26.537,80.216A147.723,147.723,0,0,1,255.892,331.539ZM158.436,191.613c7.431.1,6.92-1.113,6.935,7.086,0,7.687.572,7.025-7.086,7.025-8.079,0-7,.557-7-6.995C151.29,190.575,150.282,191.718,158.436,191.613Zm11.3-90.445v.331c-.075,8.184.857,7.055-7.161,7.145-7.191-.075-6.951,1.084-6.936-6.8.03-8.47-.541-7.282,7.417-7.312C170.456,94.5,169.689,93.781,169.734,101.168ZM323.62,236.415c-.1,7.461,1.189,7.07-6.935,7.07-8.079.015-7.161.527-7.176-7.251-.015-7.718-.617-6.77,6.83-6.83h.346C324.628,229.464,323.53,228.562,323.62,236.415Zm-82.8-177.1c7.733,0,7.041-1.038,7.056,6.935,0,7.793.8,7.146-7.3,7.161-7.778.015-6.83.451-6.815-6.89C233.792,58.292,232.739,59.33,240.817,59.315Z" fill="#373f54"/>
      </g>
    </g>
  </g>
</svg>
