<svg width="738" height="445" viewBox="0 0 738 445" fill="none" xmlns="http://www.w3.org/2000/svg">
<path d="M700.61 267.478C691.43 323.269 662.794 371.079 622.799 405.118C621.411 406.304 620.013 407.467 618.6 408.608C613.669 412.615 608.573 416.417 603.328 420H23.4664C22.303 416.251 21.2734 412.448 20.3776 408.608C20.1376 407.577 19.9067 406.545 19.6896 405.506C15.5851 386.208 14.9111 365.846 18.2261 345.207C30.9831 265.816 97.9172 208.998 175.479 206.712C176.555 206.684 178.084 206.749 179.967 206.901C213.677 209.607 245.032 189.075 255.429 156.898C255.48 156.746 255.531 156.594 255.577 156.451C290.917 51.4566 398.087 -15.4858 510.943 3.0899C636.224 23.7038 721.224 142.192 700.61 267.478Z" fill="#EAE7FB"/>
<path d="M473.251 183.737C468.593 172.87 460.203 164.475 458.043 151.87C454.235 129.703 476.787 108.599 475.815 80.5663C475.359 67.2299 469.74 55.1784 460.607 46.389C469.36 52.4397 474.267 59.5593 478.385 70.492C485.197 88.5804 475.923 108.087 475.829 108.28C475.655 108.64 475.804 109.075 476.167 109.25C476.267 109.299 476.375 109.322 476.483 109.322C476.751 109.322 477.009 109.172 477.134 108.915C477.23 108.712 486.779 88.6635 479.742 69.9797C474.209 55.2864 467.311 47.3111 452.042 39.7568C443.042 34.2073 431.993 31.2249 419.803 31.9089C405.007 32.7369 397.597 39.8482 393.994 45.6469C393.51 46.4305 393.097 47.1838 392.734 47.901C391.197 50.9886 390.776 53.2871 390.776 53.2871L400.034 241.485C400.034 241.485 431.154 252.504 441.187 249.474C454.252 247.971 475.782 224.886 476.466 200.535C477.59 207.476 477.596 216.101 474.511 225.625C474.328 226.193 474.625 226.803 475.187 226.998C475.76 227.195 476.389 226.889 476.574 226.314C481.262 211.853 479.116 199.373 476.441 191.377C475.472 188.483 474.353 185.915 473.251 183.737Z" fill="#373365"/>
<path d="M581.206 241.31C579.096 246.655 574.425 254.646 576.535 260.232C578.644 265.818 587.537 269 593.313 269C600.219 269 612.652 253.605 616.523 247.333C619.052 243.234 620.967 239.655 622.471 235.647C623.403 233.17 625.203 228.599 622.808 226.664C620.288 224.625 618.68 225.274 617.392 226.308C608.828 222.836 595.228 220 588.009 220C589.4 226.735 584.704 232.443 581.206 241.31Z" fill="#FFC3AD"/>
<path d="M391.602 218.73C391.051 219.298 390.475 219.88 389.871 220.462C388.946 221.367 387.971 222.29 386.958 223.223C377.897 231.57 366.014 240.805 363.048 246.165L360.756 250.321L360.182 251.359C359.983 251.71 359.85 251.987 359.684 252.306L358.723 254.153C358.081 255.376 357.435 256.6 356.787 257.943L354.857 261.882C353.617 264.537 352.37 267.191 351.202 269.902C350.595 271.241 350.025 272.598 349.457 273.965C348.892 275.331 348.303 276.679 347.765 278.065L346.129 282.197L344.559 286.367C343.537 289.159 342.512 291.953 341.565 294.788C340.59 297.61 339.682 300.462 338.768 303.315C337.882 306.178 337.01 309.044 336.176 311.935C335.351 314.826 334.534 317.72 333.773 320.639C332.992 323.552 332.258 326.479 331.541 329.417C330.724 332.787 329.946 336.171 329.195 339.569C328.641 342.094 328.112 344.625 327.594 347.165C326.517 352.459 325.54 357.787 324.612 363.149C323.144 362.963 321.685 362.769 320.245 362.553C317.526 362.179 314.865 361.739 312.228 361.293L308.326 360.573L304.535 359.778L321.278 383.815L322.779 374.267L324.26 365.142C324.371 364.478 324.496 363.813 324.612 363.149C325.891 363.309 327.171 363.461 328.447 363.619C328.53 363.628 328.614 363.639 328.697 363.647C330.522 363.863 332.363 364.049 334.202 364.237C332.438 368 330.555 371.764 328.453 375.527C326.731 378.615 324.861 381.71 322.793 384.798C322.488 385.255 322.178 385.712 321.865 386.169C318.121 392.258 313.411 397.384 308.728 402.662C307.889 402.568 307.047 402.477 306.202 402.374L301.442 401.751L296.604 401.003C285.569 399.295 278.002 388.963 279.71 377.922L279.715 377.886L279.863 376.967L281.303 367.765L282.864 358.153C283.955 351.712 285.146 345.257 286.453 338.813C287.757 332.366 289.189 325.931 290.75 319.509C291.531 316.299 292.334 313.09 293.193 309.891C294.029 306.685 294.929 303.492 295.843 300.302C296.757 297.109 297.726 293.924 298.715 290.748C299.725 287.572 300.742 284.396 301.83 281.236C302.893 278.068 304.043 274.925 305.192 271.776L306.97 267.067L308.825 262.376C309.434 260.811 310.11 259.259 310.755 257.703C311.403 256.147 315.529 246.872 316.969 243.801C317.7 242.264 323.684 230.172 326.31 225.855C333.546 213.961 354.004 207.257 371.22 205.091C371.885 205.004 372.547 204.93 373.203 204.861C378.484 204.293 383.391 204.163 387.423 204.454C388.273 204.51 389.084 204.593 389.851 204.69C392.529 205.032 394.675 205.595 396.093 206.38C399.89 208.48 396.999 213.162 391.602 218.73Z" fill="#EF2955"/>
<path d="M390.909 415.146C390.56 415.146 384.504 416.292 384.152 416.287C350.388 415.832 327.888 402.535 328.453 375.388L331.086 248.939C331.646 222.074 359.426 204.3 392.718 204.3C393.066 204.3 393.413 204.302 393.762 204.306C427.529 204.761 453.928 223.438 453.363 250.585L450.729 377.036C450.17 403.9 424.2 415.146 390.909 415.146Z" fill="#EF2955"/>
<path d="M586.108 262.078C579.558 258.904 576.262 253.734 574.606 249.594C567.336 258.453 556.749 271.359 555.012 273.505C549.637 280.143 544.193 286.716 538.668 293.164C533.141 299.593 527.522 305.937 521.832 311.837C520.856 312.845 519.877 313.83 518.901 314.805C516.036 311.472 513.18 307.877 510.371 304.187C503.676 295.36 497.223 286.026 490.921 276.591C484.622 267.139 478.478 257.536 472.448 247.86C471.886 246.955 459.438 225.337 453.164 219.04C443.708 209.562 426.365 204.902 411.221 203.482C410.574 203.422 409.93 203.37 409.294 203.317C402.738 202.818 396.685 202.927 391.987 203.51C391.197 203.611 390.447 203.719 389.737 203.848C387.693 204.206 386.007 204.673 384.771 205.232C380.396 207.208 384.693 211.32 391.484 216.083C392.148 216.55 392.833 217.021 393.539 217.5C394.606 218.22 395.715 218.952 396.846 219.692C405.29 225.212 414.932 231.087 417.429 235.307L421.93 242.899L426.448 250.403C429.47 255.396 432.529 260.373 435.623 265.333C440.965 273.91 446.415 282.457 452.031 290.971C452.91 292.31 453.8 293.649 454.691 294.988C461.263 304.831 468.018 314.619 475.434 324.402C479.164 329.3 483.032 334.184 487.459 339.17C489.693 341.67 492.055 344.191 494.906 346.855C495.586 347.507 496.415 348.214 497.176 348.89L498.464 349.956L499.122 350.487L499.861 351.052C500.792 351.776 501.962 352.589 503.19 353.38C503.898 353.815 504.619 354.242 505.346 354.652C506.226 355.123 507.169 355.586 508.098 356.013C511.659 357.649 515.82 358.361 520.109 357.823L520.347 357.794C520.828 357.729 521.304 357.656 521.774 357.577L522.473 357.449L523.062 357.319C523.46 357.227 523.847 357.135 524.24 357.029L525.222 356.739C526.53 356.339 527.503 355.943 528.393 355.557C530.13 354.79 531.338 354.102 532.4 353.458C534.487 352.174 535.917 351.071 537.225 350.026C539.799 347.936 541.735 346.071 543.593 344.215C547.248 340.533 550.351 337.003 553.356 333.46C559.318 326.392 564.745 319.358 570.041 312.29C575.33 305.22 580.437 298.133 585.453 291.007C587.961 287.445 596.577 274.909 596.577 274.909L603 266.351C597.832 266.033 591.92 264.895 586.108 262.078Z" fill="#EF2955"/>
<path d="M411.368 204.27C411.349 204.948 411.288 205.618 411.202 206.278C410.144 214.196 404.47 220.66 396.971 222.872C395.179 223.403 393.282 223.685 391.314 223.689H391.272C389.791 223.689 388.345 223.528 386.958 223.223C378.977 221.477 372.774 215 371.434 206.874C371.337 206.287 371.267 205.692 371.22 205.091C371.885 205.004 372.547 204.93 373.203 204.861C373.081 204.025 373.018 203.166 373.018 202.298L372.97 179.952C372.954 169.872 381.106 161.682 391.189 161.663H391.228C401.288 161.663 409.46 169.812 409.479 179.878L409.524 202.224C409.524 202.852 409.496 203.471 409.438 204.08C410.075 204.14 410.72 204.2 411.368 204.27Z" fill="white"/>
<path d="M409.524 202.225C409.524 202.853 409.499 203.472 409.435 204.079C409.377 204.68 409.283 205.273 409.169 205.857C407.649 213.45 401.427 219.345 393.659 220.357C392.889 220.457 392.103 220.513 391.305 220.513H391.269C390.799 220.513 390.333 220.495 389.871 220.463C381.84 219.853 375.252 214.039 373.488 206.384C373.369 205.886 373.278 205.379 373.203 204.86C373.081 204.026 373.018 203.165 373.018 202.299L372.984 186.387L372.976 182.726L372.97 179.952C372.954 169.874 381.106 161.682 391.189 161.665H391.228C401.288 161.665 409.46 169.812 409.477 179.878V180.12L409.491 184.789L409.524 202.225Z" fill="#FFC3AD"/>
<path d="M598 237.077C598 237.077 598.238 238.545 599.271 239.806C600.398 241.182 602.749 241.861 604.234 241.502C605.718 241.143 606.934 240.241 606.934 240.241C606.934 240.241 607.341 242.743 609.025 243.521C610.85 244.365 613.381 244.078 614.483 242.785C615.586 241.493 621.099 233.99 621.975 230.615C622.85 227.241 600.83 230.201 600.83 230.201L598 237.077Z" fill="#F0A68C"/>
<path d="M417.294 173.446C414.888 175.784 412.307 178.08 409.477 180.12L409.491 184.789C404.149 188.494 397.926 191.239 390.347 191.619C384.321 191.92 378.357 189.697 372.984 186.387L372.976 182.726C366.989 179.194 361.7 174.257 357.831 169.838C352.246 163.459 347.159 150.819 344.116 135.967C344.116 135.964 344.115 135.961 344.113 135.956C343.315 131.395 342.714 126.665 342.349 121.88C339.452 83.7009 357.241 77.4453 396.387 76.4789C423.323 75.8115 431.999 83.1886 435.258 97.3032C436.111 102.831 436.418 109.219 436.775 116.4C438.226 145.396 424.231 166.719 417.294 173.446Z" fill="#F0A68C"/>
<path d="M590.939 197.002L602.178 230.311L592.171 229.138L611.541 199.794C612.873 197.775 615.696 197.154 617.842 198.408C619.921 199.622 620.598 202.158 619.432 204.15L601.639 234.365C600.188 236.834 596.882 237.727 594.256 236.359C592.912 235.659 592.002 234.485 591.635 233.192L582.153 199.403C581.506 197.104 582.967 194.749 585.409 194.143C587.774 193.555 590.2 194.834 590.939 197.002Z" fill="#FFC3AD"/>
<path d="M599.633 234.899L607.936 222.373C609.46 220.071 612.78 219.313 615.351 220.68C617.919 222.046 618.766 225.02 617.242 227.322C617.138 227.476 617.023 227.627 616.906 227.767L607.108 239.394C605.608 241.174 602.78 241.528 600.791 240.185C598.939 238.932 598.471 236.645 599.633 234.899Z" fill="#FFC3AD"/>
<path d="M608.499 237.867L615.331 227.098C616.589 225.113 619.417 224.413 621.644 225.535C623.873 226.656 624.659 229.175 623.399 231.16C623.314 231.293 623.222 231.424 623.123 231.546L614.994 241.573C613.744 243.114 611.329 243.461 609.602 242.349C607.991 241.312 607.541 239.373 608.499 237.867Z" fill="#FFC3AD"/>
<path d="M584 237.51C584 237.51 589.571 230.042 593.451 227.41C597.044 224.975 599.226 224 600.891 224C602.558 224 615.037 228.252 616.005 229.486C617.907 231.909 617.046 237.008 613.73 237.619C610.415 238.231 602.751 236.454 601.599 236.676C600.446 236.899 598.389 238.403 598.389 238.403C598.389 238.403 602.673 246.739 593.913 249.63C585.153 252.521 584 237.51 584 237.51Z" fill="#F0A68C"/>
<path d="M92.803 388.924H558.246L634.642 408.61H8.06126L92.803 388.924Z" fill="#ACABDE"/>
<path d="M636.703 410.942V417.666C636.703 418.953 635.659 420 634.371 420H8.33402C7.04494 420 6 418.953 6 417.666V410.942C6 409.654 7.04494 408.608 8.33402 408.608H634.371C635.659 408.608 636.703 409.654 636.703 410.942Z" fill="#9998D9"/>
<path d="M400.815 393.897L454.415 386.925L271.565 386.714L244.186 393.897H400.815Z" fill="#C5D4D9"/>
<path d="M402.487 393.897H229.578L212.811 297.518C212.036 293.06 215.467 288.981 219.991 288.981H378.105C381.646 288.981 384.679 291.529 385.285 295.018L402.487 393.897Z" fill="#EFEFEF"/>
<path d="M400.053 398.766H229.157L229.253 393.897H400.053V398.766Z" fill="#EDFBFF"/>
<path d="M400.053 398.766V393.897L454.124 386.938C455.044 386.819 455.858 387.537 455.858 388.464V389.818C455.858 390.588 455.29 391.239 454.529 391.341L400.053 398.766Z" fill="#D5E2E6"/>
<path d="M400.053 393.897H229.253L211.117 299.114C210.341 294.658 213.772 290.576 218.297 290.576H375.947C379.492 290.576 382.521 293.127 383.128 296.616L400.053 393.897Z" fill="white"/>
<path d="M289.781 346.483C289.781 353.336 295.339 358.894 302.193 358.894C309.049 358.894 314.604 353.336 314.604 346.483C314.604 339.626 309.049 334.071 302.193 334.071C295.339 334.071 289.781 339.626 289.781 346.483Z" fill="#C1C6F5"/>
<path d="M402.435 393.593L400.053 393.897V398.766L402.485 398.447L402.435 393.593Z" fill="#D5E2E6"/>
<path d="M612.69 229.083L612.637 229.072C610.862 228.692 609.084 228.264 607.311 227.787C606.425 227.55 605.542 227.303 604.664 227.045L603.351 226.653L602.092 226.254L601.826 226.169C601.054 225.925 600.216 225.946 599.459 226.228L598.898 226.437V226.437C598.365 226.642 598.026 226.787 597.608 226.966L596.436 227.49C595.664 227.848 594.907 228.222 594.156 228.615C592.658 229.402 591.188 230.268 589.753 231.239C588.317 232.214 586.912 233.298 585.577 234.564C584.912 235.203 584.264 235.88 583.65 236.624C583.527 236.778 583.409 236.923 583.294 237.072C581.665 238.766 580.759 241.084 581.056 243.606C581.508 247.427 584.814 250.533 588.878 250.949C594.226 251.496 598.746 247.573 598.746 242.656C598.746 240.937 598.194 239.34 597.246 238.013C597.852 237.65 598.474 237.298 599.111 236.964C599.708 236.651 600.317 236.35 600.928 236.066L601.475 235.822L602.49 235.977C603.478 236.121 604.462 236.253 605.452 236.374C607.429 236.619 609.417 236.814 611.428 236.957C613.983 237.141 616.325 235.12 615.963 232.363C615.747 230.736 614.39 229.445 612.69 229.083Z" fill="#FFC3AD"/>
<path d="M601.338 268C599.244 268 594.265 267.891 586.304 264.254C577.578 260.265 574.24 251.432 574.098 251.075C573.776 250.258 574.273 249.368 575.212 249.086C576.152 248.805 577.176 249.237 577.501 250.053C577.556 250.183 580.407 258.03 587.822 261.419C597.121 265.668 601.863 264.854 601.906 264.847C602.887 264.697 603.802 265.272 603.974 266.123C604.143 266.975 603.471 267.786 602.494 267.934C602.363 267.953 601.98 268 601.338 268Z" fill="white"/>
<path d="M172.891 190.04C178.603 196.8 221.952 203.816 232.321 168.39C240.884 139.138 210.007 164.051 198.274 168.781C186.541 173.512 160.727 175.645 172.891 190.04Z" fill="#EAE7FB"/>
<path d="M627.902 26.9186C623.862 26.038 618.492 33.4843 622.261 35.1791C649.831 47.5878 684.612 82.1917 699.104 119.304C711.673 151.5 723.561 193.259 723.06 234.666C723.013 238.489 730.002 237.344 730.678 233.582C736.239 202.683 743.089 149.926 730.326 115.225C712.576 66.9639 682.059 38.7569 627.902 26.9186Z" fill="#EAE7FB"/>
<path d="M432.17 58.6788C430.83 62.9517 425.095 64.9566 419.365 63.1594C413.636 61.3594 410.08 56.4385 411.421 52.1657C412.761 47.89 416.541 45.7688 424.225 47.6823C433.835 50.0749 433.511 54.4032 432.17 58.6788Z" fill="#F06C21"/>
<path d="M417.294 173.446C414.888 175.784 412.307 178.08 409.477 180.12C403.966 184.096 397.514 187.094 389.566 187.492C383.828 187.778 378.143 185.776 372.976 182.726C366.989 179.194 361.7 174.257 357.831 169.838C352.246 163.459 347.159 150.82 344.115 135.967C344.115 135.964 344.115 135.961 344.113 135.956C342.925 130.146 342.047 123.998 341.571 117.751C338.671 79.5721 356.463 73.3193 395.609 72.3501C425.059 71.6245 432.677 80.5109 435.258 97.3032C436.111 102.831 436.418 109.219 436.775 116.4C438.226 145.396 424.231 166.719 417.294 173.446Z" fill="#FFC3AD"/>
<path d="M449.059 95.5586C447.877 107.062 441.804 124.483 435.003 138.14L434.917 138.146C432.91 115.405 425.856 113.27 421.434 108.596C415.633 102.471 413.808 89.2642 413.808 89.2642C413.808 89.2642 406.721 99.1669 395.847 102.556C385.54 105.769 369.814 102.789 355.74 108.599C346.383 112.462 344.7 138.14 344.7 138.14L342.634 90.7153L416.372 65.103L449.059 95.5586Z" fill="#F0A68C"/>
<path d="M428 144.778C426.269 149.58 427.427 154.395 430.584 155.532C433.74 156.67 437.703 153.698 439.431 148.896C441.162 144.093 440.007 139.279 436.85 138.141C433.693 137.003 429.731 139.974 428 144.778Z" fill="#FFC3AD"/>
<path d="M340.668 148.896C338.937 144.093 340.092 139.279 343.249 138.141C346.406 137.003 350.368 139.974 352.099 144.778C353.83 149.58 352.672 154.395 349.515 155.532C346.359 156.67 342.396 153.698 340.668 148.896Z" fill="#FFC3AD"/>
<path d="M360.033 133.411C360.033 136.723 361.883 139.409 364.164 139.409C366.446 139.409 368.296 136.723 368.296 133.411C368.296 130.099 366.446 127.416 364.164 127.416C361.883 127.416 360.033 130.099 360.033 133.411Z" fill="#1E1F35"/>
<path d="M411.609 133.411C411.609 136.723 413.459 139.409 415.741 139.409C418.022 139.409 419.872 136.723 419.872 133.411C419.872 130.099 418.022 127.416 415.741 127.416C413.459 127.416 411.609 130.099 411.609 133.411Z" fill="#1E1F35"/>
<path d="M449.09 88.9044C447.805 79.719 442.638 54.5055 419.005 54.7741C418.41 54.7824 417.823 54.9901 417.214 55.1369C417.214 55.1369 417.214 55.1369 417.206 55.1369C417.164 55.1009 416.801 54.8101 416.126 54.3615C412.786 52.1434 401.933 46.0733 386.036 48.4299C366.463 51.3293 340.538 60.282 339.305 99.4135C338.458 126.33 344.7 138.141 344.7 138.141C344.7 138.141 341.33 114.276 353.414 107.151C362.248 101.939 374.676 102.316 390.137 99.9009C402.252 98.0095 410.623 88.5998 413.808 83.726V83.7205C414.301 82.9728 414.663 82.3636 414.91 81.9427C414.974 82.3636 415.076 82.9451 415.212 83.6623C416.3 89.461 419.983 101.742 427.413 108.599C436.836 117.297 436.518 127.571 435.003 138.141C441.804 124.483 447.877 107.062 449.06 95.5588C449.328 93.0194 449.35 90.7653 449.09 88.9044Z" fill="#373365"/>
<path d="M382.258 159.413C382.258 159.413 382.278 159.43 382.316 159.463C382.347 159.476 382.388 159.483 382.433 159.501C382.496 159.538 382.571 159.583 382.66 159.636C382.754 159.69 382.865 159.755 382.976 159.827C383.097 159.897 383.23 159.975 383.369 160.06C383.518 160.138 383.671 160.227 383.828 160.318C384.003 160.399 384.172 160.494 384.349 160.587C384.543 160.665 384.723 160.764 384.922 160.851C385.13 160.922 385.321 161.022 385.531 161.098C385.753 161.158 385.952 161.257 386.177 161.319C386.407 161.366 386.617 161.458 386.85 161.505C386.966 161.528 387.082 161.548 387.196 161.577C387.312 161.604 387.42 161.645 387.545 161.654C387.664 161.671 387.786 161.688 387.907 161.705C388.027 161.721 388.137 161.764 388.267 161.764C388.519 161.779 388.766 161.809 389.018 161.832C389.281 161.829 389.541 161.842 389.802 161.86C390.07 161.851 390.344 161.834 390.618 161.836L390.721 161.836H390.771L390.796 161.836H390.804C390.97 161.823 390.585 161.854 390.627 161.85L390.646 161.849L390.934 161.822L391.513 161.77L391.657 161.759C391.693 161.755 391.704 161.749 391.729 161.744C391.77 161.735 391.812 161.725 391.854 161.719C391.937 161.706 392.022 161.698 392.108 161.694C392.333 161.633 392.574 161.61 392.795 161.553C393.017 161.494 393.244 161.444 393.457 161.369C393.565 161.334 393.678 161.31 393.784 161.27C393.889 161.228 393.991 161.181 394.102 161.147C394.324 161.085 394.518 160.965 394.733 160.887C395.141 160.688 395.55 160.487 395.924 160.252C396.121 160.145 396.301 160.026 396.475 159.908C396.661 159.802 396.819 159.674 396.982 159.566C397.306 159.342 397.589 159.127 397.832 158.946C398.068 158.76 398.275 158.618 398.405 158.51C398.538 158.405 398.619 158.351 398.619 158.351L398.862 158.184C399.92 157.468 401.357 157.744 402.072 158.8C402.388 159.265 402.509 159.806 402.46 160.324C402.46 160.324 402.448 160.441 402.412 160.657C402.374 160.871 402.316 161.192 402.205 161.589C402.094 161.988 401.933 162.467 401.698 163.006C401.46 163.542 401.155 164.143 400.734 164.763C400.532 165.078 400.283 165.385 400.028 165.709C399.768 166.028 399.463 166.333 399.153 166.656C398.497 167.26 397.746 167.876 396.866 168.364C395.996 168.878 395.021 169.265 394.008 169.567C393.72 169.635 393.429 169.699 393.136 169.76L392.693 169.843L392.479 169.881L392.335 169.899L391.759 169.964L391.471 169.995L391.452 169.997L391.258 170.012H391.247L391.2 170.013L391.106 170.014L390.918 170.015C390.414 170.02 389.912 170.019 389.411 169.999C388.904 169.943 388.398 169.883 387.899 169.809C387.398 169.72 386.905 169.573 386.423 169.451C385.939 169.32 385.473 169.117 385.022 168.94C384.119 168.552 383.3 168.066 382.58 167.541C382.225 167.276 381.896 166.994 381.588 166.72C381.286 166.434 381.012 166.148 380.755 165.868C380.511 165.576 380.284 165.296 380.082 165.021C379.891 164.736 379.708 164.47 379.553 164.211C379.403 163.944 379.265 163.7 379.151 163.465C379.04 163.225 378.941 163.008 378.86 162.805C378.697 162.399 378.606 162.059 378.534 161.818C378.487 161.679 378.462 161.566 378.442 161.497C378.437 161.447 378.434 161.421 378.434 161.421C378.298 160.145 379.223 159.001 380.5 158.865C381.151 158.796 381.771 159.004 382.236 159.394L382.258 159.413Z" fill="white"/>
<path d="M370.306 119.593C370.306 119.593 370.265 119.576 370.187 119.543C370.102 119.507 369.96 119.454 369.778 119.388C369.412 119.258 368.872 119.08 368.207 118.906C366.881 118.551 365.053 118.225 363.253 118.239C362.808 118.244 362.359 118.258 361.924 118.308C361.487 118.344 361.066 118.413 360.661 118.493C360.257 118.574 359.875 118.673 359.518 118.787C359.338 118.837 359.169 118.906 359.005 118.964C358.836 119.019 358.681 119.086 358.535 119.152C358.233 119.274 357.975 119.421 357.737 119.537C357.51 119.673 357.313 119.789 357.15 119.886C356.837 120.102 356.66 120.227 356.66 120.227L356.563 120.293C355.907 120.747 355.004 120.581 354.55 119.922C354.123 119.305 354.251 118.466 354.813 117.989C354.813 117.989 355.032 117.807 355.414 117.488C355.613 117.336 355.86 117.159 356.145 116.956C356.438 116.774 356.765 116.549 357.145 116.353C357.33 116.248 357.527 116.142 357.737 116.048C357.945 115.951 358.161 115.84 358.388 115.755C358.836 115.566 359.321 115.389 359.828 115.24C360.335 115.087 360.866 114.954 361.406 114.855C361.949 114.747 362.5 114.677 363.051 114.619C365.264 114.4 367.451 114.597 369.06 114.871C369.869 115.007 370.536 115.162 371.013 115.281C371.251 115.345 371.439 115.397 371.575 115.436C371.719 115.48 371.794 115.505 371.794 115.505C372.943 115.86 373.588 117.078 373.231 118.227C372.876 119.377 371.658 120.019 370.509 119.665C370.442 119.645 370.378 119.623 370.315 119.595L370.306 119.593Z" fill="#373365"/>
<path d="M407.912 115.505C407.912 115.505 407.99 115.48 408.134 115.436C408.269 115.397 408.458 115.345 408.696 115.281C409.169 115.162 409.837 115.007 410.645 114.871C412.257 114.597 414.442 114.4 416.654 114.619C417.206 114.677 417.759 114.747 418.299 114.855C418.842 114.954 419.371 115.087 419.878 115.239C420.385 115.389 420.869 115.566 421.321 115.755C421.548 115.84 421.761 115.951 421.969 116.048C422.179 116.142 422.376 116.247 422.564 116.353C422.943 116.549 423.27 116.774 423.564 116.956C423.849 117.159 424.092 117.336 424.292 117.488C424.674 117.807 424.893 117.989 424.893 117.989C425.508 118.504 425.588 119.415 425.076 120.03C424.594 120.606 423.755 120.711 423.148 120.296L423.046 120.227C423.046 120.227 422.869 120.102 422.556 119.886C422.392 119.789 422.196 119.673 421.969 119.537C421.733 119.421 421.476 119.274 421.171 119.152C421.024 119.086 420.869 119.019 420.703 118.964C420.537 118.906 420.371 118.837 420.188 118.787C419.833 118.673 419.449 118.574 419.044 118.493C418.64 118.413 418.219 118.344 417.781 118.308C417.349 118.258 416.901 118.244 416.452 118.239C414.652 118.225 412.827 118.551 411.501 118.906C410.836 119.08 410.294 119.258 409.928 119.388C409.748 119.454 409.607 119.507 409.518 119.543C409.441 119.576 409.399 119.593 409.399 119.593L409.394 119.595C408.286 120.058 407.009 119.534 406.547 118.424C406.082 117.314 406.608 116.04 407.715 115.575C407.779 115.55 407.848 115.525 407.912 115.505Z" fill="#373365"/>
<path d="M419.005 54.7743L415.212 83.6625C415.076 82.9453 414.973 82.3638 414.91 81.9429C414.663 82.3638 414.301 82.973 413.808 83.7207L416.125 54.3617C416.801 54.8103 417.164 55.1011 417.205 55.1371C417.214 55.1371 417.214 55.1371 417.214 55.1371C417.823 54.9903 418.418 54.8685 419.005 54.7743Z" fill="#2B2850"/>
<path d="M387.102 151.397C385.867 151.397 384.551 151.174 383.579 150.438C382.928 149.946 382.156 148.998 382.167 147.279C382.181 145.449 383.164 143.929 384.114 142.461C384.263 142.231 384.41 142.004 384.551 141.774C385.052 140.976 385.712 138.733 385.925 137.936C386.041 137.498 386.49 137.238 386.927 137.354C387.365 137.47 387.625 137.922 387.509 138.357C387.426 138.675 386.661 141.494 385.941 142.643C385.795 142.879 385.642 143.114 385.49 143.349C384.632 144.681 383.817 145.938 383.806 147.291C383.801 148.137 384.05 148.739 384.568 149.131C385.997 150.211 389.129 149.625 390.217 149.308C390.652 149.182 391.106 149.431 391.233 149.865C391.361 150.3 391.111 150.755 390.677 150.881C390.397 150.963 388.824 151.397 387.102 151.397Z" fill="#F0A68C"/>
<rect x="551" y="16" width="60" height="60" rx="30" fill="#4E4BA8"/>
<path d="M577 60.84C577.427 60.84 577.76 60.9467 578 61.16C578.267 61.4 578.4 61.72 578.4 62.12C578.4 62.5467 578.267 62.8667 578 63.08C577.76 63.2933 577.427 63.4 577 63.4H574.24C572.933 63.4 571.933 63.04 571.24 62.32C570.547 61.6267 570.2 60.6267 570.2 59.32V50.24C570.2 49.1467 569.987 48.3467 569.56 47.84C569.16 47.3333 568.44 47.0533 567.4 47C566.947 46.9733 566.6 46.84 566.36 46.6C566.12 46.36 566 46.0533 566 45.68C566 45.3067 566.12 45 566.36 44.76C566.6 44.52 566.947 44.3867 567.4 44.36C568.44 44.3067 569.16 44.04 569.56 43.56C569.987 43.0533 570.2 42.2533 570.2 41.16V32.08C570.2 30.7733 570.547 29.7733 571.24 29.08C571.933 28.36 572.933 28 574.24 28H577C577.427 28 577.76 28.1067 578 28.32C578.267 28.5333 578.4 28.8533 578.4 29.28C578.4 29.68 578.267 30 578 30.24C577.76 30.4533 577.427 30.56 577 30.56H575.12C573.973 30.56 573.4 31.16 573.4 32.36V41.48C573.4 42.6533 573.107 43.6 572.52 44.32C571.96 45.04 571.28 45.4933 570.48 45.68C571.28 45.8667 571.96 46.32 572.52 47.04C573.107 47.76 573.4 48.7067 573.4 49.88V59.04C573.4 60.24 573.973 60.84 575.12 60.84H577Z" fill="white"/>
<path d="M594.985 44.36C595.438 44.3867 595.785 44.52 596.025 44.76C596.265 45 596.385 45.3067 596.385 45.68C596.385 46.0533 596.265 46.36 596.025 46.6C595.785 46.84 595.438 46.9733 594.985 47C593.945 47.0533 593.225 47.3333 592.825 47.84C592.425 48.32 592.225 49.12 592.225 50.24L592.185 59.32C592.185 60.6267 591.838 61.6267 591.145 62.32C590.452 63.04 589.452 63.4 588.145 63.4H585.385C584.958 63.4 584.612 63.2933 584.345 63.08C584.105 62.8667 583.985 62.5467 583.985 62.12C583.985 61.72 584.105 61.4 584.345 61.16C584.612 60.9467 584.958 60.84 585.385 60.84H587.225C588.398 60.84 588.985 60.24 588.985 59.04V49.88C588.985 48.7067 589.265 47.76 589.825 47.04C590.412 46.32 591.105 45.8667 591.905 45.68C591.105 45.4933 590.412 45.04 589.825 44.32C589.265 43.6 588.985 42.6533 588.985 41.48V32.36C588.985 31.16 588.398 30.56 587.225 30.56H585.385C584.958 30.56 584.612 30.4533 584.345 30.24C584.105 30 583.985 29.68 583.985 29.28C583.985 28.8533 584.105 28.5333 584.345 28.32C584.612 28.1067 584.958 28 585.385 28H588.145C589.452 28 590.452 28.36 591.145 29.08C591.838 29.7733 592.185 30.7733 592.185 32.08V41.16C592.185 42.2533 592.385 43.0533 592.785 43.56C593.212 44.04 593.945 44.3067 594.985 44.36Z" fill="white"/>
<path d="M203 349H55V325" stroke="#9F9DE7"/>
<path d="M196 308H135V181" stroke="#9F9DE7"/>
<path d="M269 272L269 63" stroke="#9F9DE7"/>
<path d="M478 248H546V187" stroke="#9F9DE7"/>
<path d="M161.264 35.04C161.317 35.168 161.344 35.2747 161.344 35.36C161.344 35.5627 161.259 35.7333 161.088 35.872C160.928 36.0107 160.747 36.08 160.544 36.08C160.405 36.08 160.272 36.0427 160.144 35.968C160.027 35.8827 159.936 35.7653 159.872 35.616L158.816 33.216H152.96L151.904 35.616C151.84 35.7653 151.744 35.8827 151.616 35.968C151.488 36.0427 151.355 36.08 151.216 36.08C151.003 36.08 150.811 36.0107 150.64 35.872C150.48 35.7333 150.4 35.5627 150.4 35.36C150.4 35.2747 150.427 35.168 150.48 35.04L154.992 25.168C155.067 24.9973 155.184 24.864 155.344 24.768C155.515 24.672 155.691 24.624 155.872 24.624C156.053 24.624 156.224 24.672 156.384 24.768C156.555 24.864 156.677 24.9973 156.752 25.168L161.264 35.04ZM153.552 31.904H158.24L155.888 26.608L153.552 31.904ZM173.462 34.976C173.558 35.1147 173.606 35.264 173.606 35.424C173.606 35.616 173.526 35.7813 173.366 35.92C173.217 36.048 173.041 36.112 172.838 36.112C172.539 36.112 172.299 35.9787 172.118 35.712L169.974 32.384C169.729 32 169.467 31.7333 169.19 31.584C168.913 31.424 168.55 31.344 168.102 31.344H166.294V35.248C166.294 35.504 166.219 35.7067 166.07 35.856C165.931 36.0053 165.734 36.08 165.478 36.08C165.233 36.08 165.035 36.0053 164.886 35.856C164.737 35.7067 164.662 35.504 164.662 35.248V25.52C164.662 25.2747 164.731 25.0827 164.87 24.944C165.019 24.7947 165.222 24.72 165.478 24.72H169.462C170.71 24.72 171.659 24.9973 172.31 25.552C172.971 26.1067 173.302 26.9173 173.302 27.984C173.302 28.8693 173.051 29.5893 172.55 30.144C172.049 30.688 171.334 31.0347 170.406 31.184C170.683 31.2587 170.934 31.392 171.158 31.584C171.382 31.776 171.601 32.0427 171.814 32.384L173.462 34.976ZM169.27 30.016C170.102 30.016 170.715 29.856 171.11 29.536C171.515 29.2053 171.718 28.6987 171.718 28.016C171.718 27.3333 171.521 26.8373 171.126 26.528C170.731 26.208 170.113 26.048 169.27 26.048H166.278V30.016H169.27ZM180.516 36.08C180.271 36.08 180.068 36.0053 179.908 35.856C179.759 35.696 179.684 35.4933 179.684 35.248V26.096H176.484C175.972 26.096 175.716 25.8667 175.716 25.408C175.716 25.184 175.78 25.0133 175.908 24.896C176.047 24.7787 176.239 24.72 176.484 24.72H184.548C184.794 24.72 184.98 24.7787 185.108 24.896C185.247 25.0133 185.316 25.184 185.316 25.408C185.316 25.8667 185.06 26.096 184.548 26.096H181.348V35.248C181.348 35.4933 181.274 35.696 181.124 35.856C180.975 36.0053 180.772 36.08 180.516 36.08ZM189.1 36.08C188.855 36.08 188.657 36.0053 188.508 35.856C188.359 35.7067 188.284 35.504 188.284 35.248V25.472C188.284 25.2267 188.359 25.0293 188.508 24.88C188.657 24.72 188.855 24.64 189.1 24.64C189.356 24.64 189.559 24.7147 189.708 24.864C189.857 25.0133 189.932 25.216 189.932 25.472V35.248C189.932 35.504 189.857 35.7067 189.708 35.856C189.569 36.0053 189.367 36.08 189.1 36.08ZM194.966 36.08C194.72 36.08 194.523 36.0053 194.374 35.856C194.224 35.696 194.15 35.4933 194.15 35.248V25.52C194.15 25.2747 194.219 25.0827 194.358 24.944C194.507 24.7947 194.71 24.72 194.966 24.72H200.694C201.206 24.72 201.462 24.944 201.462 25.392C201.462 25.84 201.206 26.064 200.694 26.064H195.782V29.6H200.374C200.886 29.6 201.142 29.824 201.142 30.272C201.142 30.72 200.886 30.944 200.374 30.944H195.782V35.248C195.782 35.504 195.707 35.7067 195.558 35.856C195.419 36.0053 195.222 36.08 194.966 36.08ZM205.534 36.08C205.289 36.08 205.092 36.0053 204.942 35.856C204.793 35.7067 204.718 35.504 204.718 35.248V25.472C204.718 25.2267 204.793 25.0293 204.942 24.88C205.092 24.72 205.289 24.64 205.534 24.64C205.79 24.64 205.993 24.7147 206.142 24.864C206.292 25.0133 206.366 25.216 206.366 25.472V35.248C206.366 35.504 206.292 35.7067 206.142 35.856C206.004 36.0053 205.801 36.08 205.534 36.08ZM215.496 36.128C214.419 36.128 213.48 35.8987 212.68 35.44C211.88 34.9707 211.267 34.304 210.84 33.44C210.413 32.5653 210.2 31.536 210.2 30.352C210.2 29.1787 210.413 28.16 210.84 27.296C211.267 26.4213 211.88 25.7547 212.68 25.296C213.48 24.8267 214.419 24.592 215.496 24.592C216.2 24.592 216.867 24.704 217.496 24.928C218.125 25.1413 218.675 25.456 219.144 25.872C219.347 26.032 219.448 26.2453 219.448 26.512C219.448 26.704 219.395 26.8693 219.288 27.008C219.181 27.136 219.053 27.2 218.904 27.2C218.723 27.2 218.547 27.1307 218.376 26.992C217.864 26.608 217.395 26.3413 216.968 26.192C216.552 26.032 216.077 25.952 215.544 25.952C214.371 25.952 213.469 26.3307 212.84 27.088C212.211 27.8453 211.896 28.9333 211.896 30.352C211.896 31.7813 212.211 32.8747 212.84 33.632C213.469 34.3893 214.371 34.768 215.544 34.768C216.056 34.768 216.52 34.688 216.936 34.528C217.363 34.368 217.843 34.1013 218.376 33.728C218.589 33.5893 218.765 33.52 218.904 33.52C219.053 33.52 219.181 33.5893 219.288 33.728C219.395 33.856 219.448 34.016 219.448 34.208C219.448 34.4747 219.347 34.688 219.144 34.848C218.675 35.264 218.125 35.584 217.496 35.808C216.867 36.0213 216.2 36.128 215.496 36.128ZM223.828 36.08C223.583 36.08 223.385 36.0053 223.236 35.856C223.087 35.7067 223.012 35.504 223.012 35.248V25.472C223.012 25.2267 223.087 25.0293 223.236 24.88C223.385 24.72 223.583 24.64 223.828 24.64C224.084 24.64 224.287 24.7147 224.436 24.864C224.585 25.0133 224.66 25.216 224.66 25.472V35.248C224.66 35.504 224.585 35.7067 224.436 35.856C224.297 36.0053 224.095 36.08 223.828 36.08ZM238.83 35.04C238.883 35.168 238.91 35.2747 238.91 35.36C238.91 35.5627 238.824 35.7333 238.654 35.872C238.494 36.0107 238.312 36.08 238.11 36.08C237.971 36.08 237.838 36.0427 237.71 35.968C237.592 35.8827 237.502 35.7653 237.438 35.616L236.382 33.216H230.526L229.47 35.616C229.406 35.7653 229.31 35.8827 229.182 35.968C229.054 36.0427 228.92 36.08 228.782 36.08C228.568 36.08 228.376 36.0107 228.206 35.872C228.046 35.7333 227.966 35.5627 227.966 35.36C227.966 35.2747 227.992 35.168 228.046 35.04L232.558 25.168C232.632 24.9973 232.75 24.864 232.91 24.768C233.08 24.672 233.256 24.624 233.438 24.624C233.619 24.624 233.79 24.672 233.95 24.768C234.12 24.864 234.243 24.9973 234.318 25.168L238.83 35.04ZM231.118 31.904H235.806L233.454 26.608L231.118 31.904ZM243.028 36C242.782 36 242.585 35.9307 242.436 35.792C242.297 35.6533 242.228 35.4667 242.228 35.232V25.472C242.228 25.2267 242.302 25.0293 242.452 24.88C242.601 24.72 242.798 24.64 243.044 24.64C243.3 24.64 243.502 24.7147 243.652 24.864C243.801 25.0133 243.876 25.216 243.876 25.472V34.624H248.74C248.985 34.624 249.172 34.6827 249.3 34.8C249.438 34.9173 249.508 35.088 249.508 35.312C249.508 35.536 249.438 35.7067 249.3 35.824C249.172 35.9413 248.985 36 248.74 36H243.028ZM259.212 36.08C258.967 36.08 258.77 36.0053 258.62 35.856C258.471 35.7067 258.396 35.504 258.396 35.248V25.472C258.396 25.2267 258.471 25.0293 258.62 24.88C258.77 24.72 258.967 24.64 259.212 24.64C259.468 24.64 259.671 24.7147 259.82 24.864C259.97 25.0133 260.044 25.216 260.044 25.472V35.248C260.044 35.504 259.97 35.7067 259.82 35.856C259.682 36.0053 259.479 36.08 259.212 36.08ZM272.742 24.64C272.977 24.64 273.163 24.72 273.302 24.88C273.451 25.0293 273.526 25.2267 273.526 25.472V35.248C273.526 35.4933 273.451 35.696 273.302 35.856C273.153 36.0053 272.961 36.08 272.726 36.08C272.449 36.08 272.235 35.9733 272.086 35.76L265.814 27.488V35.248C265.814 35.4933 265.739 35.696 265.59 35.856C265.451 36.0053 265.265 36.08 265.03 36.08C264.795 36.08 264.609 36.0053 264.47 35.856C264.331 35.7067 264.262 35.504 264.262 35.248V25.472C264.262 25.2267 264.337 25.0293 264.486 24.88C264.635 24.72 264.827 24.64 265.062 24.64C265.339 24.64 265.553 24.7467 265.702 24.96L271.974 33.248V25.472C271.974 25.2267 272.043 25.0293 272.182 24.88C272.321 24.72 272.507 24.64 272.742 24.64ZM281.273 36.08C281.027 36.08 280.825 36.0053 280.665 35.856C280.515 35.696 280.441 35.4933 280.441 35.248V26.096H277.241C276.729 26.096 276.473 25.8667 276.473 25.408C276.473 25.184 276.537 25.0133 276.665 24.896C276.803 24.7787 276.995 24.72 277.241 24.72H285.305C285.55 24.72 285.737 24.7787 285.865 24.896C286.003 25.0133 286.073 25.184 286.073 25.408C286.073 25.8667 285.817 26.096 285.305 26.096H282.105V35.248C282.105 35.4933 282.03 35.696 281.881 35.856C281.731 36.0053 281.529 36.08 281.273 36.08ZM289.856 36C289.6 36 289.397 35.9307 289.248 35.792C289.109 35.6427 289.04 35.4453 289.04 35.2V25.52C289.04 25.2747 289.109 25.0827 289.248 24.944C289.397 24.7947 289.6 24.72 289.856 24.72H295.744C295.989 24.72 296.176 24.7787 296.304 24.896C296.443 25.0133 296.512 25.1787 296.512 25.392C296.512 25.6053 296.443 25.7707 296.304 25.888C296.176 25.9947 295.989 26.048 295.744 26.048H290.656V29.6H295.424C295.669 29.6 295.856 29.6587 295.984 29.776C296.123 29.8933 296.192 30.0587 296.192 30.272C296.192 30.4853 296.123 30.6507 295.984 30.768C295.856 30.8853 295.669 30.944 295.424 30.944H290.656V34.672H295.744C296.256 34.672 296.512 34.8907 296.512 35.328C296.512 35.5413 296.443 35.7067 296.304 35.824C296.176 35.9413 295.989 36 295.744 36H289.856ZM300.799 36C300.554 36 300.357 35.9307 300.208 35.792C300.069 35.6533 300 35.4667 300 35.232V25.472C300 25.2267 300.074 25.0293 300.224 24.88C300.373 24.72 300.57 24.64 300.816 24.64C301.072 24.64 301.274 24.7147 301.424 24.864C301.573 25.0133 301.648 25.216 301.648 25.472V34.624H306.512C306.757 34.624 306.944 34.6827 307.072 34.8C307.21 34.9173 307.28 35.088 307.28 35.312C307.28 35.536 307.21 35.7067 307.072 35.824C306.944 35.9413 306.757 36 306.512 36H300.799ZM311.15 36C310.904 36 310.707 35.9307 310.558 35.792C310.419 35.6533 310.35 35.4667 310.35 35.232V25.472C310.35 25.2267 310.424 25.0293 310.574 24.88C310.723 24.72 310.92 24.64 311.166 24.64C311.422 24.64 311.624 24.7147 311.774 24.864C311.923 25.0133 311.998 25.216 311.998 25.472V34.624H316.862C317.107 34.624 317.294 34.6827 317.422 34.8C317.56 34.9173 317.63 35.088 317.63 35.312C317.63 35.536 317.56 35.7067 317.422 35.824C317.294 35.9413 317.107 36 316.862 36H311.15ZM321.515 36.08C321.27 36.08 321.073 36.0053 320.923 35.856C320.774 35.7067 320.699 35.504 320.699 35.248V25.472C320.699 25.2267 320.774 25.0293 320.923 24.88C321.073 24.72 321.27 24.64 321.515 24.64C321.771 24.64 321.974 24.7147 322.123 24.864C322.273 25.0133 322.347 25.216 322.347 25.472V35.248C322.347 35.504 322.273 35.7067 322.123 35.856C321.985 36.0053 321.782 36.08 321.515 36.08ZM335.045 30.016C335.248 30.016 335.408 30.0747 335.525 30.192C335.653 30.3093 335.717 30.4693 335.717 30.672V34.416C335.717 34.7787 335.664 35.04 335.557 35.2C335.461 35.36 335.264 35.488 334.965 35.584C334.538 35.7547 334.032 35.888 333.445 35.984C332.858 36.08 332.277 36.128 331.701 36.128C330.56 36.128 329.573 35.8987 328.741 35.44C327.909 34.9813 327.274 34.32 326.837 33.456C326.4 32.592 326.181 31.5573 326.181 30.352C326.181 29.168 326.4 28.144 326.837 27.28C327.274 26.416 327.898 25.7547 328.709 25.296C329.53 24.8267 330.49 24.592 331.589 24.592C332.336 24.592 333.024 24.704 333.653 24.928C334.293 25.1413 334.837 25.456 335.285 25.872C335.498 26.0427 335.605 26.256 335.605 26.512C335.605 26.704 335.552 26.8693 335.445 27.008C335.338 27.136 335.21 27.2 335.061 27.2C334.965 27.2 334.88 27.184 334.805 27.152C334.73 27.12 334.634 27.0667 334.517 26.992C333.994 26.608 333.52 26.3413 333.093 26.192C332.666 26.032 332.176 25.952 331.621 25.952C330.405 25.952 329.477 26.3307 328.837 27.088C328.197 27.8347 327.877 28.9227 327.877 30.352C327.877 31.8133 328.202 32.9227 328.853 33.68C329.514 34.4267 330.48 34.8 331.749 34.8C332.602 34.8 333.424 34.672 334.213 34.416V31.264H332.117C331.904 31.264 331.733 31.2107 331.605 31.104C331.488 30.9867 331.429 30.832 331.429 30.64C331.429 30.448 331.488 30.2987 331.605 30.192C331.733 30.0747 331.904 30.016 332.117 30.016H335.045ZM340.622 36C340.366 36 340.163 35.9307 340.014 35.792C339.875 35.6427 339.806 35.4453 339.806 35.2V25.52C339.806 25.2747 339.875 25.0827 340.014 24.944C340.163 24.7947 340.366 24.72 340.622 24.72H346.51C346.755 24.72 346.942 24.7787 347.07 24.896C347.208 25.0133 347.278 25.1787 347.278 25.392C347.278 25.6053 347.208 25.7707 347.07 25.888C346.942 25.9947 346.755 26.048 346.51 26.048H341.422V29.6H346.19C346.435 29.6 346.622 29.6587 346.75 29.776C346.888 29.8933 346.958 30.0587 346.958 30.272C346.958 30.4853 346.888 30.6507 346.75 30.768C346.622 30.8853 346.435 30.944 346.19 30.944H341.422V34.672H346.51C347.022 34.672 347.278 34.8907 347.278 35.328C347.278 35.5413 347.208 35.7067 347.07 35.824C346.942 35.9413 346.755 36 346.51 36H340.622ZM359.245 24.64C359.48 24.64 359.666 24.72 359.805 24.88C359.954 25.0293 360.029 25.2267 360.029 25.472V35.248C360.029 35.4933 359.954 35.696 359.805 35.856C359.656 36.0053 359.464 36.08 359.229 36.08C358.952 36.08 358.738 35.9733 358.589 35.76L352.317 27.488V35.248C352.317 35.4933 352.242 35.696 352.093 35.856C351.954 36.0053 351.768 36.08 351.533 36.08C351.298 36.08 351.112 36.0053 350.973 35.856C350.834 35.7067 350.765 35.504 350.765 35.248V25.472C350.765 25.2267 350.84 25.0293 350.989 24.88C351.138 24.72 351.33 24.64 351.565 24.64C351.842 24.64 352.056 24.7467 352.205 24.96L358.477 33.248V25.472C358.477 25.2267 358.546 25.0293 358.685 24.88C358.824 24.72 359.01 24.64 359.245 24.64ZM369.168 36.128C368.09 36.128 367.152 35.8987 366.352 35.44C365.552 34.9707 364.938 34.304 364.512 33.44C364.085 32.5653 363.872 31.536 363.872 30.352C363.872 29.1787 364.085 28.16 364.512 27.296C364.938 26.4213 365.552 25.7547 366.352 25.296C367.152 24.8267 368.09 24.592 369.168 24.592C369.872 24.592 370.538 24.704 371.168 24.928C371.797 25.1413 372.346 25.456 372.816 25.872C373.018 26.032 373.12 26.2453 373.12 26.512C373.12 26.704 373.066 26.8693 372.96 27.008C372.853 27.136 372.725 27.2 372.576 27.2C372.394 27.2 372.218 27.1307 372.048 26.992C371.536 26.608 371.066 26.3413 370.64 26.192C370.224 26.032 369.749 25.952 369.216 25.952C368.042 25.952 367.141 26.3307 366.512 27.088C365.882 27.8453 365.568 28.9333 365.568 30.352C365.568 31.7813 365.882 32.8747 366.512 33.632C367.141 34.3893 368.042 34.768 369.216 34.768C369.728 34.768 370.192 34.688 370.608 34.528C371.034 34.368 371.514 34.1013 372.048 33.728C372.261 33.5893 372.437 33.52 372.576 33.52C372.725 33.52 372.853 33.5893 372.96 33.728C373.066 33.856 373.12 34.016 373.12 34.208C373.12 34.4747 373.018 34.688 372.816 34.848C372.346 35.264 371.797 35.584 371.168 35.808C370.538 36.0213 369.872 36.128 369.168 36.128ZM377.5 36C377.244 36 377.041 35.9307 376.892 35.792C376.753 35.6427 376.684 35.4453 376.684 35.2V25.52C376.684 25.2747 376.753 25.0827 376.892 24.944C377.041 24.7947 377.244 24.72 377.5 24.72H383.388C383.633 24.72 383.82 24.7787 383.948 24.896C384.087 25.0133 384.156 25.1787 384.156 25.392C384.156 25.6053 384.087 25.7707 383.948 25.888C383.82 25.9947 383.633 26.048 383.388 26.048H378.3V29.6H383.068C383.313 29.6 383.5 29.6587 383.628 29.776C383.767 29.8933 383.836 30.0587 383.836 30.272C383.836 30.4853 383.767 30.6507 383.628 30.768C383.5 30.8853 383.313 30.944 383.068 30.944H378.3V34.672H383.388C383.9 34.672 384.156 34.8907 384.156 35.328C384.156 35.5413 384.087 35.7067 383.948 35.824C383.82 35.9413 383.633 36 383.388 36H377.5Z" fill="#514B95"/>
<path d="M546.128 101.08C545.883 101.08 545.685 101.005 545.536 100.856C545.387 100.707 545.312 100.504 545.312 100.248V90.52C545.312 90.2747 545.381 90.0827 545.52 89.944C545.669 89.7947 545.872 89.72 546.128 89.72H549.984C551.179 89.72 552.107 90.0133 552.768 90.6C553.429 91.1867 553.76 92.0187 553.76 93.096C553.76 94.1627 553.429 94.9947 552.768 95.592C552.107 96.1893 551.179 96.488 549.984 96.488H546.96V100.248C546.96 100.504 546.885 100.707 546.736 100.856C546.597 101.005 546.395 101.08 546.128 101.08ZM549.808 95.16C551.387 95.16 552.176 94.472 552.176 93.096C552.176 91.7307 551.387 91.048 549.808 91.048H546.96V95.16H549.808ZM564.327 89.928C564.477 89.736 564.663 89.64 564.887 89.64C565.079 89.64 565.25 89.72 565.399 89.88C565.559 90.0293 565.639 90.2053 565.639 90.408C565.639 90.6 565.575 90.7653 565.447 90.904L561.671 95.608V100.248C561.671 100.515 561.591 100.723 561.431 100.872C561.282 101.011 561.085 101.08 560.839 101.08C560.594 101.08 560.397 101.011 560.247 100.872C560.098 100.723 560.023 100.515 560.023 100.248V95.608L556.247 90.904C556.119 90.7653 556.055 90.5947 556.055 90.392C556.055 90.1893 556.13 90.0133 556.279 89.864C556.429 89.7147 556.605 89.64 556.807 89.64C557.021 89.64 557.207 89.736 557.367 89.928L560.855 94.312L564.327 89.928ZM572.438 101.08C572.193 101.08 571.99 101.005 571.83 100.856C571.681 100.696 571.606 100.493 571.606 100.248V91.096H568.406C567.894 91.096 567.638 90.8667 567.638 90.408C567.638 90.184 567.702 90.0133 567.83 89.896C567.969 89.7787 568.161 89.72 568.406 89.72H576.47C576.716 89.72 576.902 89.7787 577.03 89.896C577.169 90.0133 577.238 90.184 577.238 90.408C577.238 90.8667 576.982 91.096 576.47 91.096H573.27V100.248C573.27 100.493 573.196 100.696 573.046 100.856C572.897 101.005 572.694 101.08 572.438 101.08ZM588.958 89.64C589.203 89.64 589.4 89.72 589.55 89.88C589.699 90.0293 589.774 90.2267 589.774 90.472V100.248C589.774 100.493 589.699 100.696 589.55 100.856C589.4 101.005 589.203 101.08 588.958 101.08C588.712 101.08 588.515 101.005 588.366 100.856C588.216 100.707 588.142 100.504 588.142 100.248V95.944H581.838V100.248C581.838 100.493 581.763 100.696 581.614 100.856C581.464 101.005 581.267 101.08 581.022 101.08C580.776 101.08 580.579 101.005 580.43 100.856C580.28 100.707 580.206 100.504 580.206 100.248V90.472C580.206 90.2267 580.28 90.0293 580.43 89.88C580.579 89.72 580.776 89.64 581.022 89.64C581.267 89.64 581.464 89.72 581.614 89.88C581.763 90.0293 581.838 90.2267 581.838 90.472V94.6H588.142V90.472C588.142 90.2267 588.216 90.0293 588.366 89.88C588.515 89.72 588.712 89.64 588.958 89.64ZM598.841 101.128C597.775 101.128 596.847 100.893 596.057 100.424C595.279 99.9547 594.676 99.288 594.249 98.424C593.823 97.56 593.609 96.5413 593.609 95.368C593.609 94.184 593.817 93.16 594.233 92.296C594.66 91.4213 595.268 90.7547 596.057 90.296C596.847 89.8267 597.775 89.592 598.841 89.592C599.919 89.592 600.852 89.8267 601.641 90.296C602.431 90.7547 603.033 91.4213 603.449 92.296C603.876 93.16 604.089 94.1787 604.089 95.352C604.089 96.5253 603.876 97.5493 603.449 98.424C603.033 99.288 602.431 99.9547 601.641 100.424C600.852 100.893 599.919 101.128 598.841 101.128ZM598.841 99.784C599.972 99.784 600.852 99.4 601.481 98.632C602.111 97.864 602.425 96.7707 602.425 95.352C602.425 93.9333 602.111 92.8453 601.481 92.088C600.863 91.32 599.983 90.936 598.841 90.936C597.721 90.936 596.847 91.32 596.217 92.088C595.599 92.8453 595.289 93.9333 595.289 95.352C595.289 96.7707 595.599 97.864 596.217 98.632C596.847 99.4 597.721 99.784 598.841 99.784ZM616.417 89.64C616.652 89.64 616.838 89.72 616.977 89.88C617.126 90.0293 617.201 90.2267 617.201 90.472V100.248C617.201 100.493 617.126 100.696 616.977 100.856C616.828 101.005 616.636 101.08 616.401 101.08C616.124 101.08 615.91 100.973 615.761 100.76L609.489 92.488V100.248C609.489 100.493 609.414 100.696 609.265 100.856C609.126 101.005 608.94 101.08 608.705 101.08C608.47 101.08 608.284 101.005 608.145 100.856C608.006 100.707 607.937 100.504 607.937 100.248V90.472C607.937 90.2267 608.012 90.0293 608.161 89.88C608.31 89.72 608.502 89.64 608.737 89.64C609.014 89.64 609.228 89.7467 609.377 89.96L615.649 98.248V90.472C615.649 90.2267 615.718 90.0293 615.857 89.88C615.996 89.72 616.182 89.64 616.417 89.64Z" fill="#514B95"/>
<path d="M678.264 218.04C678.317 218.168 678.344 218.275 678.344 218.36C678.344 218.563 678.259 218.733 678.088 218.872C677.928 219.011 677.747 219.08 677.544 219.08C677.405 219.08 677.272 219.043 677.144 218.968C677.027 218.883 676.936 218.765 676.872 218.616L675.816 216.216H669.96L668.904 218.616C668.84 218.765 668.744 218.883 668.616 218.968C668.488 219.043 668.355 219.08 668.216 219.08C668.003 219.08 667.811 219.011 667.64 218.872C667.48 218.733 667.4 218.563 667.4 218.36C667.4 218.275 667.427 218.168 667.48 218.04L671.992 208.168C672.067 207.997 672.184 207.864 672.344 207.768C672.515 207.672 672.691 207.624 672.872 207.624C673.053 207.624 673.224 207.672 673.384 207.768C673.555 207.864 673.677 207.997 673.752 208.168L678.264 218.04ZM670.552 214.904H675.24L672.888 209.608L670.552 214.904ZM682.478 219.08C682.233 219.08 682.035 219.005 681.886 218.856C681.737 218.707 681.662 218.504 681.662 218.248V208.52C681.662 208.275 681.731 208.083 681.87 207.944C682.019 207.795 682.222 207.72 682.478 207.72H686.334C687.529 207.72 688.457 208.013 689.118 208.6C689.779 209.187 690.11 210.019 690.11 211.096C690.11 212.163 689.779 212.995 689.118 213.592C688.457 214.189 687.529 214.488 686.334 214.488H683.31V218.248C683.31 218.504 683.235 218.707 683.086 218.856C682.947 219.005 682.745 219.08 682.478 219.08ZM686.158 213.16C687.737 213.16 688.526 212.472 688.526 211.096C688.526 209.731 687.737 209.048 686.158 209.048H683.31V213.16H686.158ZM694.516 219.08C694.27 219.08 694.073 219.005 693.924 218.856C693.774 218.707 693.7 218.504 693.7 218.248V208.52C693.7 208.275 693.769 208.083 693.908 207.944C694.057 207.795 694.26 207.72 694.516 207.72H698.372C699.566 207.72 700.494 208.013 701.156 208.6C701.817 209.187 702.148 210.019 702.148 211.096C702.148 212.163 701.817 212.995 701.156 213.592C700.494 214.189 699.566 214.488 698.372 214.488H695.348V218.248C695.348 218.504 695.273 218.707 695.124 218.856C694.985 219.005 694.782 219.08 694.516 219.08ZM698.196 213.16C699.774 213.16 700.564 212.472 700.564 211.096C700.564 209.731 699.774 209.048 698.196 209.048H695.348V213.16H698.196Z" fill="#514B95"/>
<path d="M593.128 310.08C592.883 310.08 592.685 310.005 592.536 309.856C592.387 309.707 592.312 309.504 592.312 309.248V299.52C592.312 299.275 592.381 299.083 592.52 298.944C592.669 298.795 592.872 298.72 593.128 298.72H596.984C598.179 298.72 599.107 299.013 599.768 299.6C600.429 300.187 600.76 301.019 600.76 302.096C600.76 303.163 600.429 303.995 599.768 304.592C599.107 305.189 598.179 305.488 596.984 305.488H593.96V309.248C593.96 309.504 593.885 309.707 593.736 309.856C593.597 310.005 593.395 310.08 593.128 310.08ZM596.808 304.16C598.387 304.16 599.176 303.472 599.176 302.096C599.176 300.731 598.387 300.048 596.808 300.048H593.96V304.16H596.808ZM613.15 308.976C613.246 309.115 613.294 309.264 613.294 309.424C613.294 309.616 613.214 309.781 613.054 309.92C612.904 310.048 612.728 310.112 612.526 310.112C612.227 310.112 611.987 309.979 611.806 309.712L609.662 306.384C609.416 306 609.155 305.733 608.878 305.584C608.6 305.424 608.238 305.344 607.79 305.344H605.982V309.248C605.982 309.504 605.907 309.707 605.758 309.856C605.619 310.005 605.422 310.08 605.166 310.08C604.92 310.08 604.723 310.005 604.574 309.856C604.424 309.707 604.35 309.504 604.35 309.248V299.52C604.35 299.275 604.419 299.083 604.558 298.944C604.707 298.795 604.91 298.72 605.166 298.72H609.15C610.398 298.72 611.347 298.997 611.998 299.552C612.659 300.107 612.99 300.917 612.99 301.984C612.99 302.869 612.739 303.589 612.238 304.144C611.736 304.688 611.022 305.035 610.094 305.184C610.371 305.259 610.622 305.392 610.846 305.584C611.07 305.776 611.288 306.043 611.502 306.384L613.15 308.976ZM608.958 304.016C609.79 304.016 610.403 303.856 610.798 303.536C611.203 303.205 611.406 302.699 611.406 302.016C611.406 301.333 611.208 300.837 610.814 300.528C610.419 300.208 609.8 300.048 608.958 300.048H605.966V304.016H608.958ZM621.766 310.128C620.7 310.128 619.772 309.893 618.982 309.424C618.204 308.955 617.601 308.288 617.174 307.424C616.748 306.56 616.534 305.541 616.534 304.368C616.534 303.184 616.742 302.16 617.158 301.296C617.585 300.421 618.193 299.755 618.982 299.296C619.772 298.827 620.7 298.592 621.766 298.592C622.844 298.592 623.777 298.827 624.566 299.296C625.356 299.755 625.958 300.421 626.374 301.296C626.801 302.16 627.014 303.179 627.014 304.352C627.014 305.525 626.801 306.549 626.374 307.424C625.958 308.288 625.356 308.955 624.566 309.424C623.777 309.893 622.844 310.128 621.766 310.128ZM621.766 308.784C622.897 308.784 623.777 308.4 624.406 307.632C625.036 306.864 625.35 305.771 625.35 304.352C625.35 302.933 625.036 301.845 624.406 301.088C623.788 300.32 622.908 299.936 621.766 299.936C620.646 299.936 619.772 300.32 619.142 301.088C618.524 301.845 618.214 302.933 618.214 304.352C618.214 305.771 618.524 306.864 619.142 307.632C619.772 308.4 620.646 308.784 621.766 308.784ZM639.342 304.016C639.545 304.016 639.705 304.075 639.822 304.192C639.95 304.309 640.014 304.469 640.014 304.672V308.416C640.014 308.779 639.961 309.04 639.854 309.2C639.758 309.36 639.561 309.488 639.262 309.584C638.835 309.755 638.329 309.888 637.742 309.984C637.155 310.08 636.574 310.128 635.998 310.128C634.857 310.128 633.87 309.899 633.038 309.44C632.206 308.981 631.571 308.32 631.134 307.456C630.697 306.592 630.478 305.557 630.478 304.352C630.478 303.168 630.697 302.144 631.134 301.28C631.571 300.416 632.195 299.755 633.006 299.296C633.827 298.827 634.787 298.592 635.886 298.592C636.633 298.592 637.321 298.704 637.95 298.928C638.59 299.141 639.134 299.456 639.582 299.872C639.795 300.043 639.902 300.256 639.902 300.512C639.902 300.704 639.849 300.869 639.742 301.008C639.635 301.136 639.507 301.2 639.358 301.2C639.262 301.2 639.177 301.184 639.102 301.152C639.027 301.12 638.931 301.067 638.814 300.992C638.291 300.608 637.817 300.341 637.39 300.192C636.963 300.032 636.473 299.952 635.918 299.952C634.702 299.952 633.774 300.331 633.134 301.088C632.494 301.835 632.174 302.923 632.174 304.352C632.174 305.813 632.499 306.923 633.15 307.68C633.811 308.427 634.777 308.8 636.046 308.8C636.899 308.8 637.721 308.672 638.51 308.416V305.264H636.414C636.201 305.264 636.03 305.211 635.902 305.104C635.785 304.987 635.726 304.832 635.726 304.64C635.726 304.448 635.785 304.299 635.902 304.192C636.03 304.075 636.201 304.016 636.414 304.016H639.342ZM652.903 308.976C652.999 309.115 653.047 309.264 653.047 309.424C653.047 309.616 652.967 309.781 652.807 309.92C652.657 310.048 652.481 310.112 652.279 310.112C651.98 310.112 651.74 309.979 651.559 309.712L649.415 306.384C649.169 306 648.908 305.733 648.631 305.584C648.353 305.424 647.991 305.344 647.543 305.344H645.735V309.248C645.735 309.504 645.66 309.707 645.511 309.856C645.372 310.005 645.175 310.08 644.919 310.08C644.673 310.08 644.476 310.005 644.327 309.856C644.177 309.707 644.103 309.504 644.103 309.248V299.52C644.103 299.275 644.172 299.083 644.311 298.944C644.46 298.795 644.663 298.72 644.919 298.72H648.903C650.151 298.72 651.1 298.997 651.751 299.552C652.412 300.107 652.743 300.917 652.743 301.984C652.743 302.869 652.492 303.589 651.991 304.144C651.489 304.688 650.775 305.035 649.847 305.184C650.124 305.259 650.375 305.392 650.599 305.584C650.823 305.776 651.041 306.043 651.255 306.384L652.903 308.976ZM648.711 304.016C649.543 304.016 650.156 303.856 650.551 303.536C650.956 303.205 651.159 302.699 651.159 302.016C651.159 301.333 650.961 300.837 650.567 300.528C650.172 300.208 649.553 300.048 648.711 300.048H645.719V304.016H648.711ZM666.592 309.04C666.645 309.168 666.672 309.275 666.672 309.36C666.672 309.563 666.587 309.733 666.416 309.872C666.256 310.011 666.075 310.08 665.872 310.08C665.733 310.08 665.6 310.043 665.472 309.968C665.355 309.883 665.264 309.765 665.2 309.616L664.144 307.216H658.288L657.232 309.616C657.168 309.765 657.072 309.883 656.944 309.968C656.816 310.043 656.683 310.08 656.544 310.08C656.331 310.08 656.139 310.011 655.968 309.872C655.808 309.733 655.728 309.563 655.728 309.36C655.728 309.275 655.755 309.168 655.808 309.04L660.32 299.168C660.395 298.997 660.512 298.864 660.672 298.768C660.843 298.672 661.019 298.624 661.2 298.624C661.381 298.624 661.552 298.672 661.712 298.768C661.883 298.864 662.005 298.997 662.08 299.168L666.592 309.04ZM658.88 305.904H663.568L661.216 300.608L658.88 305.904ZM680.006 298.64C680.241 298.64 680.433 298.72 680.582 298.88C680.731 299.029 680.806 299.227 680.806 299.472V309.296C680.806 309.541 680.737 309.733 680.598 309.872C680.47 310.011 680.289 310.08 680.054 310.08C679.83 310.08 679.654 310.011 679.526 309.872C679.398 309.733 679.334 309.541 679.334 309.296V301.856L676.198 307.824C675.995 308.197 675.734 308.384 675.414 308.384C675.094 308.384 674.833 308.197 674.63 307.824L671.478 301.92V309.296C671.478 309.541 671.414 309.733 671.286 309.872C671.158 310.011 670.977 310.08 670.742 310.08C670.518 310.08 670.337 310.011 670.198 309.872C670.07 309.723 670.006 309.531 670.006 309.296V299.472C670.006 299.227 670.081 299.029 670.23 298.88C670.379 298.72 670.571 298.64 670.806 298.64C671.137 298.64 671.403 298.832 671.606 299.216L675.43 306.528L679.222 299.216C679.425 298.832 679.686 298.64 680.006 298.64ZM695.059 298.64C695.294 298.64 695.486 298.72 695.635 298.88C695.785 299.029 695.859 299.227 695.859 299.472V309.296C695.859 309.541 695.79 309.733 695.651 309.872C695.523 310.011 695.342 310.08 695.107 310.08C694.883 310.08 694.707 310.011 694.579 309.872C694.451 309.733 694.387 309.541 694.387 309.296V301.856L691.251 307.824C691.049 308.197 690.787 308.384 690.467 308.384C690.147 308.384 689.886 308.197 689.683 307.824L686.531 301.92V309.296C686.531 309.541 686.467 309.733 686.339 309.872C686.211 310.011 686.03 310.08 685.795 310.08C685.571 310.08 685.39 310.011 685.251 309.872C685.123 309.723 685.059 309.531 685.059 309.296V299.472C685.059 299.227 685.134 299.029 685.283 298.88C685.433 298.72 685.625 298.64 685.859 298.64C686.19 298.64 686.457 298.832 686.659 299.216L690.483 306.528L694.275 299.216C694.478 298.832 694.739 298.64 695.059 298.64ZM700.912 310.08C700.667 310.08 700.47 310.005 700.32 309.856C700.171 309.707 700.096 309.504 700.096 309.248V299.472C700.096 299.227 700.171 299.029 700.32 298.88C700.47 298.72 700.667 298.64 700.912 298.64C701.168 298.64 701.371 298.715 701.52 298.864C701.67 299.013 701.744 299.216 701.744 299.472V309.248C701.744 309.504 701.67 309.707 701.52 309.856C701.382 310.005 701.179 310.08 700.912 310.08ZM714.442 298.64C714.677 298.64 714.863 298.72 715.002 298.88C715.151 299.029 715.226 299.227 715.226 299.472V309.248C715.226 309.493 715.151 309.696 715.002 309.856C714.853 310.005 714.661 310.08 714.426 310.08C714.149 310.08 713.935 309.973 713.786 309.76L707.514 301.488V309.248C707.514 309.493 707.439 309.696 707.29 309.856C707.151 310.005 706.965 310.08 706.73 310.08C706.495 310.08 706.309 310.005 706.17 309.856C706.031 309.707 705.962 309.504 705.962 309.248V299.472C705.962 299.227 706.037 299.029 706.186 298.88C706.335 298.72 706.527 298.64 706.762 298.64C707.039 298.64 707.253 298.747 707.402 298.96L713.674 307.248V299.472C713.674 299.227 713.743 299.029 713.882 298.88C714.021 298.72 714.207 298.64 714.442 298.64ZM727.933 304.016C728.135 304.016 728.295 304.075 728.413 304.192C728.541 304.309 728.605 304.469 728.605 304.672V308.416C728.605 308.779 728.551 309.04 728.445 309.2C728.349 309.36 728.151 309.488 727.853 309.584C727.426 309.755 726.919 309.888 726.333 309.984C725.746 310.08 725.165 310.128 724.589 310.128C723.447 310.128 722.461 309.899 721.629 309.44C720.797 308.981 720.162 308.32 719.725 307.456C719.287 306.592 719.069 305.557 719.069 304.352C719.069 303.168 719.287 302.144 719.725 301.28C720.162 300.416 720.786 299.755 721.597 299.296C722.418 298.827 723.378 298.592 724.477 298.592C725.223 298.592 725.911 298.704 726.541 298.928C727.181 299.141 727.725 299.456 728.173 299.872C728.386 300.043 728.493 300.256 728.493 300.512C728.493 300.704 728.439 300.869 728.333 301.008C728.226 301.136 728.098 301.2 727.949 301.2C727.853 301.2 727.767 301.184 727.693 301.152C727.618 301.12 727.522 301.067 727.405 300.992C726.882 300.608 726.407 300.341 725.981 300.192C725.554 300.032 725.063 299.952 724.509 299.952C723.293 299.952 722.365 300.331 721.725 301.088C721.085 301.835 720.765 302.923 720.765 304.352C720.765 305.813 721.09 306.923 721.741 307.68C722.402 308.427 723.367 308.8 724.637 308.8C725.49 308.8 726.311 308.672 727.101 308.416V305.264H725.005C724.791 305.264 724.621 305.211 724.493 305.104C724.375 304.987 724.317 304.832 724.317 304.64C724.317 304.448 724.375 304.299 724.493 304.192C724.621 304.075 724.791 304.016 725.005 304.016H727.933Z" fill="#514B95"/>
<path d="M521.112 164C520.867 164 520.669 163.931 520.52 163.792C520.381 163.653 520.312 163.467 520.312 163.232V153.472C520.312 153.227 520.387 153.029 520.536 152.88C520.685 152.72 520.883 152.64 521.128 152.64C521.384 152.64 521.587 152.715 521.736 152.864C521.885 153.013 521.96 153.216 521.96 153.472V162.624H526.824C527.069 162.624 527.256 162.683 527.384 162.8C527.523 162.917 527.592 163.088 527.592 163.312C527.592 163.536 527.523 163.707 527.384 163.824C527.256 163.941 527.069 164 526.824 164H521.112ZM534.916 164.128C533.85 164.128 532.922 163.893 532.132 163.424C531.354 162.955 530.751 162.288 530.324 161.424C529.898 160.56 529.684 159.541 529.684 158.368C529.684 157.184 529.892 156.16 530.308 155.296C530.735 154.421 531.343 153.755 532.132 153.296C532.922 152.827 533.85 152.592 534.916 152.592C535.994 152.592 536.927 152.827 537.716 153.296C538.506 153.755 539.108 154.421 539.524 155.296C539.951 156.16 540.164 157.179 540.164 158.352C540.164 159.525 539.951 160.549 539.524 161.424C539.108 162.288 538.506 162.955 537.716 163.424C536.927 163.893 535.994 164.128 534.916 164.128ZM534.916 162.784C536.047 162.784 536.927 162.4 537.556 161.632C538.186 160.864 538.5 159.771 538.5 158.352C538.5 156.933 538.186 155.845 537.556 155.088C536.938 154.32 536.058 153.936 534.916 153.936C533.796 153.936 532.922 154.32 532.292 155.088C531.674 155.845 531.364 156.933 531.364 158.352C531.364 159.771 531.674 160.864 532.292 161.632C532.922 162.4 533.796 162.784 534.916 162.784ZM552.492 158.016C552.695 158.016 552.855 158.075 552.972 158.192C553.1 158.309 553.164 158.469 553.164 158.672V162.416C553.164 162.779 553.111 163.04 553.004 163.2C552.908 163.36 552.711 163.488 552.412 163.584C551.985 163.755 551.479 163.888 550.892 163.984C550.305 164.08 549.724 164.128 549.148 164.128C548.007 164.128 547.02 163.899 546.188 163.44C545.356 162.981 544.721 162.32 544.284 161.456C543.847 160.592 543.628 159.557 543.628 158.352C543.628 157.168 543.847 156.144 544.284 155.28C544.721 154.416 545.345 153.755 546.156 153.296C546.977 152.827 547.937 152.592 549.036 152.592C549.783 152.592 550.471 152.704 551.1 152.928C551.74 153.141 552.284 153.456 552.732 153.872C552.945 154.043 553.052 154.256 553.052 154.512C553.052 154.704 552.999 154.869 552.892 155.008C552.785 155.136 552.657 155.2 552.508 155.2C552.412 155.2 552.327 155.184 552.252 155.152C552.177 155.12 552.081 155.067 551.964 154.992C551.441 154.608 550.967 154.341 550.54 154.192C550.113 154.032 549.623 153.952 549.068 153.952C547.852 153.952 546.924 154.331 546.284 155.088C545.644 155.835 545.324 156.923 545.324 158.352C545.324 159.813 545.649 160.923 546.3 161.68C546.961 162.427 547.927 162.8 549.196 162.8C550.049 162.8 550.871 162.672 551.66 162.416V159.264H549.564C549.351 159.264 549.18 159.211 549.052 159.104C548.935 158.987 548.876 158.832 548.876 158.64C548.876 158.448 548.935 158.299 549.052 158.192C549.18 158.075 549.351 158.016 549.564 158.016H552.492ZM558.069 164.08C557.823 164.08 557.626 164.005 557.477 163.856C557.327 163.707 557.253 163.504 557.253 163.248V153.472C557.253 153.227 557.327 153.029 557.477 152.88C557.626 152.72 557.823 152.64 558.069 152.64C558.325 152.64 558.527 152.715 558.677 152.864C558.826 153.013 558.901 153.216 558.901 153.472V163.248C558.901 163.504 558.826 163.707 558.677 163.856C558.538 164.005 558.335 164.08 558.069 164.08ZM568.03 164.128C566.953 164.128 566.014 163.899 565.214 163.44C564.414 162.971 563.801 162.304 563.374 161.44C562.948 160.565 562.734 159.536 562.734 158.352C562.734 157.179 562.948 156.16 563.374 155.296C563.801 154.421 564.414 153.755 565.214 153.296C566.014 152.827 566.953 152.592 568.03 152.592C568.734 152.592 569.401 152.704 570.03 152.928C570.66 153.141 571.209 153.456 571.678 153.872C571.881 154.032 571.982 154.245 571.982 154.512C571.982 154.704 571.929 154.869 571.822 155.008C571.716 155.136 571.588 155.2 571.438 155.2C571.257 155.2 571.081 155.131 570.91 154.992C570.398 154.608 569.929 154.341 569.502 154.192C569.086 154.032 568.612 153.952 568.078 153.952C566.905 153.952 566.004 154.331 565.374 155.088C564.745 155.845 564.43 156.933 564.43 158.352C564.43 159.781 564.745 160.875 565.374 161.632C566.004 162.389 566.905 162.768 568.078 162.768C568.59 162.768 569.054 162.688 569.47 162.528C569.897 162.368 570.377 162.101 570.91 161.728C571.124 161.589 571.3 161.52 571.438 161.52C571.588 161.52 571.716 161.589 571.822 161.728C571.929 161.856 571.982 162.016 571.982 162.208C571.982 162.475 571.881 162.688 571.678 162.848C571.209 163.264 570.66 163.584 570.03 163.808C569.401 164.021 568.734 164.128 568.03 164.128Z" fill="#514B95"/>
<path d="M73.824 155.128C72.32 155.128 71.1787 154.739 70.4 153.96C69.6213 153.181 69.232 152.035 69.232 150.52V144.472C69.232 144.216 69.3067 144.013 69.456 143.864C69.6053 143.715 69.8027 143.64 70.048 143.64C70.2933 143.64 70.4907 143.715 70.64 143.864C70.7893 144.013 70.864 144.216 70.864 144.472V150.632C70.864 151.667 71.1093 152.451 71.6 152.984C72.1013 153.517 72.8427 153.784 73.824 153.784C74.7947 153.784 75.5307 153.517 76.032 152.984C76.5333 152.451 76.784 151.667 76.784 150.632V144.472C76.784 144.227 76.8587 144.029 77.008 143.88C77.1573 143.72 77.3547 143.64 77.6 143.64C77.8453 143.64 78.0427 143.715 78.192 143.864C78.3413 144.013 78.416 144.216 78.416 144.472V150.52C78.416 152.024 78.0213 153.171 77.232 153.96C76.4533 154.739 75.3173 155.128 73.824 155.128ZM83.3686 155.08C83.1233 155.08 82.926 155.005 82.7766 154.856C82.6273 154.707 82.5526 154.504 82.5526 154.248V144.472C82.5526 144.227 82.6273 144.029 82.7766 143.88C82.926 143.72 83.1233 143.64 83.3686 143.64C83.6246 143.64 83.8273 143.715 83.9766 143.864C84.126 144.013 84.2006 144.216 84.2006 144.472V154.248C84.2006 154.504 84.126 154.707 83.9766 154.856C83.838 155.005 83.6353 155.08 83.3686 155.08ZM94.061 155.56C94.0077 155.731 93.9223 155.853 93.805 155.928C93.6877 156.013 93.5597 156.056 93.421 156.056C93.2397 156.056 93.0797 155.997 92.941 155.88C92.8023 155.763 92.733 155.608 92.733 155.416C92.733 155.341 92.749 155.256 92.781 155.16L96.525 143.432C96.5783 143.261 96.6637 143.139 96.781 143.064C96.8983 142.979 97.0263 142.936 97.165 142.936C97.3463 142.936 97.5063 142.995 97.645 143.112C97.7837 143.229 97.853 143.384 97.853 143.576C97.853 143.651 97.837 143.736 97.805 143.832L94.061 155.56ZM110.902 155.128C109.398 155.128 108.257 154.739 107.478 153.96C106.699 153.181 106.31 152.035 106.31 150.52V144.472C106.31 144.216 106.385 144.013 106.534 143.864C106.683 143.715 106.881 143.64 107.126 143.64C107.371 143.64 107.569 143.715 107.718 143.864C107.867 144.013 107.942 144.216 107.942 144.472V150.632C107.942 151.667 108.187 152.451 108.678 152.984C109.179 153.517 109.921 153.784 110.902 153.784C111.873 153.784 112.609 153.517 113.11 152.984C113.611 152.451 113.862 151.667 113.862 150.632V144.472C113.862 144.227 113.937 144.029 114.086 143.88C114.235 143.72 114.433 143.64 114.678 143.64C114.923 143.64 115.121 143.715 115.27 143.864C115.419 144.013 115.494 144.216 115.494 144.472V150.52C115.494 152.024 115.099 153.171 114.31 153.96C113.531 154.739 112.395 155.128 110.902 155.128ZM128.05 153.816C128.188 153.965 128.258 154.131 128.258 154.312C128.258 154.515 128.178 154.696 128.018 154.856C127.858 155.005 127.676 155.08 127.474 155.08C127.25 155.08 127.058 154.984 126.898 154.792L123.426 150.424L119.938 154.792C119.778 154.984 119.591 155.08 119.378 155.08C119.175 155.08 118.994 155.005 118.834 154.856C118.674 154.696 118.594 154.515 118.594 154.312C118.594 154.141 118.658 153.976 118.786 153.816L122.466 149.256L118.962 144.904C118.834 144.765 118.77 144.6 118.77 144.408C118.77 144.205 118.844 144.029 118.994 143.88C119.154 143.72 119.335 143.64 119.538 143.64C119.762 143.64 119.954 143.736 120.114 143.928L123.426 148.104L126.738 143.928C126.887 143.736 127.079 143.64 127.314 143.64C127.516 143.64 127.698 143.72 127.858 143.88C128.018 144.029 128.098 144.205 128.098 144.408C128.098 144.589 128.028 144.755 127.89 144.904L124.386 149.256L128.05 153.816ZM138.209 155C137.953 155 137.751 154.931 137.601 154.792C137.463 154.643 137.393 154.445 137.393 154.2V144.52C137.393 144.275 137.463 144.083 137.601 143.944C137.751 143.795 137.953 143.72 138.209 143.72H141.345C143.169 143.72 144.583 144.211 145.585 145.192C146.588 146.173 147.089 147.56 147.089 149.352C147.089 151.144 146.588 152.536 145.585 153.528C144.583 154.509 143.169 155 141.345 155H138.209ZM141.249 153.624C144.023 153.624 145.409 152.2 145.409 149.352C145.409 146.515 144.023 145.096 141.249 145.096H139.041V153.624H141.249ZM151.747 155C151.491 155 151.288 154.931 151.139 154.792C151 154.643 150.931 154.445 150.931 154.2V144.52C150.931 144.275 151 144.083 151.139 143.944C151.288 143.795 151.491 143.72 151.747 143.72H157.635C157.88 143.72 158.067 143.779 158.195 143.896C158.333 144.013 158.403 144.179 158.403 144.392C158.403 144.605 158.333 144.771 158.195 144.888C158.067 144.995 157.88 145.048 157.635 145.048H152.547V148.6H157.315C157.56 148.6 157.747 148.659 157.875 148.776C158.013 148.893 158.083 149.059 158.083 149.272C158.083 149.485 158.013 149.651 157.875 149.768C157.747 149.885 157.56 149.944 157.315 149.944H152.547V153.672H157.635C158.147 153.672 158.403 153.891 158.403 154.328C158.403 154.541 158.333 154.707 158.195 154.824C158.067 154.941 157.88 155 157.635 155H151.747ZM165.462 155.128C164.651 155.128 163.878 155.016 163.142 154.792C162.417 154.568 161.835 154.259 161.398 153.864C161.195 153.693 161.094 153.475 161.094 153.208C161.094 153.016 161.147 152.856 161.254 152.728C161.361 152.589 161.489 152.52 161.638 152.52C161.787 152.52 161.969 152.589 162.182 152.728C163.131 153.432 164.214 153.784 165.43 153.784C166.283 153.784 166.939 153.624 167.398 153.304C167.857 152.984 168.086 152.525 168.086 151.928C168.086 151.459 167.873 151.107 167.446 150.872C167.019 150.637 166.337 150.413 165.398 150.2C164.502 150.008 163.766 149.789 163.19 149.544C162.614 149.299 162.161 148.968 161.83 148.552C161.51 148.125 161.35 147.587 161.35 146.936C161.35 146.285 161.526 145.709 161.878 145.208C162.241 144.696 162.742 144.301 163.382 144.024C164.022 143.736 164.753 143.592 165.574 143.592C166.331 143.592 167.03 143.699 167.67 143.912C168.31 144.125 168.854 144.44 169.302 144.856C169.515 145.037 169.622 145.256 169.622 145.512C169.622 145.693 169.563 145.853 169.446 145.992C169.339 146.131 169.211 146.2 169.062 146.2C168.923 146.2 168.747 146.131 168.534 145.992C168.043 145.619 167.579 145.352 167.142 145.192C166.715 145.021 166.198 144.936 165.59 144.936C164.769 144.936 164.129 145.107 163.67 145.448C163.211 145.779 162.982 146.243 162.982 146.84C162.982 147.352 163.185 147.741 163.59 148.008C163.995 148.264 164.646 148.499 165.542 148.712C166.481 148.925 167.238 149.149 167.814 149.384C168.401 149.608 168.865 149.923 169.206 150.328C169.558 150.723 169.734 151.235 169.734 151.864C169.734 152.504 169.553 153.075 169.19 153.576C168.838 154.067 168.337 154.451 167.686 154.728C167.046 154.995 166.305 155.128 165.462 155.128ZM174.181 155.08C173.936 155.08 173.738 155.005 173.589 154.856C173.44 154.707 173.365 154.504 173.365 154.248V144.472C173.365 144.227 173.44 144.029 173.589 143.88C173.738 143.72 173.936 143.64 174.181 143.64C174.437 143.64 174.64 143.715 174.789 143.864C174.938 144.013 175.013 144.216 175.013 144.472V154.248C175.013 154.504 174.938 154.707 174.789 154.856C174.65 155.005 174.448 155.08 174.181 155.08ZM187.711 149.016C187.913 149.016 188.073 149.075 188.191 149.192C188.319 149.309 188.383 149.469 188.383 149.672V153.416C188.383 153.779 188.329 154.04 188.223 154.2C188.127 154.36 187.929 154.488 187.631 154.584C187.204 154.755 186.697 154.888 186.111 154.984C185.524 155.08 184.943 155.128 184.367 155.128C183.225 155.128 182.239 154.899 181.407 154.44C180.575 153.981 179.94 153.32 179.503 152.456C179.065 151.592 178.847 150.557 178.847 149.352C178.847 148.168 179.065 147.144 179.503 146.28C179.94 145.416 180.564 144.755 181.375 144.296C182.196 143.827 183.156 143.592 184.255 143.592C185.001 143.592 185.689 143.704 186.319 143.928C186.959 144.141 187.503 144.456 187.951 144.872C188.164 145.043 188.271 145.256 188.271 145.512C188.271 145.704 188.217 145.869 188.111 146.008C188.004 146.136 187.876 146.2 187.727 146.2C187.631 146.2 187.545 146.184 187.471 146.152C187.396 146.12 187.3 146.067 187.183 145.992C186.66 145.608 186.185 145.341 185.759 145.192C185.332 145.032 184.841 144.952 184.287 144.952C183.071 144.952 182.143 145.331 181.503 146.088C180.863 146.835 180.543 147.923 180.543 149.352C180.543 150.813 180.868 151.923 181.519 152.68C182.18 153.427 183.145 153.8 184.415 153.8C185.268 153.8 186.089 153.672 186.879 153.416V150.264H184.783C184.569 150.264 184.399 150.211 184.271 150.104C184.153 149.987 184.095 149.832 184.095 149.64C184.095 149.448 184.153 149.299 184.271 149.192C184.399 149.075 184.569 149.016 184.783 149.016H187.711ZM200.951 143.64C201.186 143.64 201.373 143.72 201.511 143.88C201.661 144.029 201.735 144.227 201.735 144.472V154.248C201.735 154.493 201.661 154.696 201.511 154.856C201.362 155.005 201.17 155.08 200.935 155.08C200.658 155.08 200.445 154.973 200.295 154.76L194.023 146.488V154.248C194.023 154.493 193.949 154.696 193.799 154.856C193.661 155.005 193.474 155.08 193.239 155.08C193.005 155.08 192.818 155.005 192.679 154.856C192.541 154.707 192.471 154.504 192.471 154.248V144.472C192.471 144.227 192.546 144.029 192.695 143.88C192.845 143.72 193.037 143.64 193.271 143.64C193.549 143.64 193.762 143.747 193.911 143.96L200.183 152.248V144.472C200.183 144.227 200.253 144.029 200.391 143.88C200.53 143.72 200.717 143.64 200.951 143.64Z" fill="#514B95"/>
<path d="M1.8 298.08C1.48 298.101 1.23467 298.053 1.064 297.936C0.893333 297.819 0.808 297.643 0.808 297.408C0.808 296.992 1.03733 296.768 1.496 296.736L1.992 296.704C2.49333 296.683 2.86667 296.533 3.112 296.256C3.35733 295.968 3.48 295.52 3.48 294.912V287.472C3.48 287.227 3.55467 287.029 3.704 286.88C3.864 286.72 4.06667 286.64 4.312 286.64C4.568 286.64 4.77067 286.72 4.92 286.88C5.06933 287.029 5.144 287.227 5.144 287.472V294.912C5.144 295.915 4.904 296.677 4.424 297.2C3.95467 297.712 3.24533 297.995 2.296 298.048L1.8 298.08ZM19.3171 297.04C19.3705 297.168 19.3971 297.275 19.3971 297.36C19.3971 297.563 19.3118 297.733 19.1411 297.872C18.9811 298.011 18.7998 298.08 18.5971 298.08C18.4585 298.08 18.3251 298.043 18.1971 297.968C18.0798 297.883 17.9891 297.765 17.9251 297.616L16.8691 295.216H11.0131L9.95712 297.616C9.89312 297.765 9.79712 297.883 9.66912 297.968C9.54112 298.043 9.40779 298.08 9.26912 298.08C9.05579 298.08 8.86379 298.011 8.69312 297.872C8.53312 297.733 8.45312 297.563 8.45312 297.36C8.45312 297.275 8.47979 297.168 8.53312 297.04L13.0451 287.168C13.1198 286.997 13.2371 286.864 13.3971 286.768C13.5678 286.672 13.7438 286.624 13.9251 286.624C14.1065 286.624 14.2771 286.672 14.4371 286.768C14.6078 286.864 14.7305 286.997 14.8051 287.168L19.3171 297.04ZM11.6051 293.904H16.2931L13.9411 288.608L11.6051 293.904ZM29.9083 287.072C30.0469 286.773 30.2763 286.624 30.5963 286.624C30.8096 286.624 31.0016 286.699 31.1723 286.848C31.3429 286.987 31.4283 287.157 31.4283 287.36C31.4283 287.435 31.4016 287.536 31.3483 287.664L26.8363 297.552C26.7616 297.723 26.6443 297.856 26.4843 297.952C26.3243 298.048 26.1536 298.096 25.9723 298.096C25.7909 298.096 25.6149 298.048 25.4443 297.952C25.2843 297.856 25.1669 297.723 25.0923 297.552L20.5963 287.664C20.5429 287.536 20.5163 287.435 20.5163 287.36C20.5163 287.147 20.6016 286.971 20.7723 286.832C20.9536 286.693 21.1509 286.624 21.3643 286.624C21.6949 286.624 21.9296 286.773 22.0683 287.072L25.9883 295.856L29.9083 287.072ZM43.3921 297.04C43.4455 297.168 43.4721 297.275 43.4721 297.36C43.4721 297.563 43.3868 297.733 43.2161 297.872C43.0561 298.011 42.8748 298.08 42.6721 298.08C42.5335 298.08 42.4001 298.043 42.2721 297.968C42.1548 297.883 42.0641 297.765 42.0001 297.616L40.9441 295.216H35.0881L34.0321 297.616C33.9681 297.765 33.8721 297.883 33.7441 297.968C33.6161 298.043 33.4828 298.08 33.3441 298.08C33.1308 298.08 32.9388 298.011 32.7681 297.872C32.6081 297.733 32.5281 297.563 32.5281 297.36C32.5281 297.275 32.5548 297.168 32.6081 297.04L37.1201 287.168C37.1948 286.997 37.3121 286.864 37.4721 286.768C37.6428 286.672 37.8188 286.624 38.0001 286.624C38.1815 286.624 38.3521 286.672 38.5121 286.768C38.6828 286.864 38.8055 286.997 38.8801 287.168L43.3921 297.04ZM35.6801 293.904H40.3681L38.0161 288.608L35.6801 293.904ZM50.4088 298.128C49.5981 298.128 48.8248 298.016 48.0888 297.792C47.3634 297.568 46.7821 297.259 46.3448 296.864C46.1421 296.693 46.0408 296.475 46.0408 296.208C46.0408 296.016 46.0941 295.856 46.2008 295.728C46.3074 295.589 46.4354 295.52 46.5848 295.52C46.7341 295.52 46.9154 295.589 47.1288 295.728C48.0781 296.432 49.1608 296.784 50.3768 296.784C51.2301 296.784 51.8861 296.624 52.3448 296.304C52.8034 295.984 53.0328 295.525 53.0328 294.928C53.0328 294.459 52.8194 294.107 52.3928 293.872C51.9661 293.637 51.2834 293.413 50.3448 293.2C49.4488 293.008 48.7128 292.789 48.1368 292.544C47.5608 292.299 47.1074 291.968 46.7768 291.552C46.4568 291.125 46.2968 290.587 46.2968 289.936C46.2968 289.285 46.4728 288.709 46.8248 288.208C47.1874 287.696 47.6888 287.301 48.3288 287.024C48.9688 286.736 49.6994 286.592 50.5208 286.592C51.2781 286.592 51.9768 286.699 52.6168 286.912C53.2568 287.125 53.8008 287.44 54.2488 287.856C54.4621 288.037 54.5688 288.256 54.5688 288.512C54.5688 288.693 54.5101 288.853 54.3928 288.992C54.2861 289.131 54.1581 289.2 54.0088 289.2C53.8701 289.2 53.6941 289.131 53.4808 288.992C52.9901 288.619 52.5261 288.352 52.0888 288.192C51.6621 288.021 51.1448 287.936 50.5368 287.936C49.7154 287.936 49.0754 288.107 48.6168 288.448C48.1581 288.779 47.9288 289.243 47.9288 289.84C47.9288 290.352 48.1314 290.741 48.5368 291.008C48.9421 291.264 49.5928 291.499 50.4888 291.712C51.4274 291.925 52.1848 292.149 52.7608 292.384C53.3474 292.608 53.8114 292.923 54.1528 293.328C54.5048 293.723 54.6808 294.235 54.6808 294.864C54.6808 295.504 54.4994 296.075 54.1368 296.576C53.7848 297.067 53.2834 297.451 52.6328 297.728C51.9928 297.995 51.2514 298.128 50.4088 298.128ZM63.224 298.128C62.1467 298.128 61.208 297.899 60.408 297.44C59.608 296.971 58.9947 296.304 58.568 295.44C58.1413 294.565 57.928 293.536 57.928 292.352C57.928 291.179 58.1413 290.16 58.568 289.296C58.9947 288.421 59.608 287.755 60.408 287.296C61.208 286.827 62.1467 286.592 63.224 286.592C63.928 286.592 64.5947 286.704 65.224 286.928C65.8533 287.141 66.4027 287.456 66.872 287.872C67.0747 288.032 67.176 288.245 67.176 288.512C67.176 288.704 67.1227 288.869 67.016 289.008C66.9093 289.136 66.7813 289.2 66.632 289.2C66.4507 289.2 66.2747 289.131 66.104 288.992C65.592 288.608 65.1227 288.341 64.696 288.192C64.28 288.032 63.8053 287.952 63.272 287.952C62.0987 287.952 61.1973 288.331 60.568 289.088C59.9387 289.845 59.624 290.933 59.624 292.352C59.624 293.781 59.9387 294.875 60.568 295.632C61.1973 296.389 62.0987 296.768 63.272 296.768C63.784 296.768 64.248 296.688 64.664 296.528C65.0907 296.368 65.5707 296.101 66.104 295.728C66.3173 295.589 66.4933 295.52 66.632 295.52C66.7813 295.52 66.9093 295.589 67.016 295.728C67.1227 295.856 67.176 296.016 67.176 296.208C67.176 296.475 67.0747 296.688 66.872 296.848C66.4027 297.264 65.8533 297.584 65.224 297.808C64.5947 298.021 63.928 298.128 63.224 298.128ZM79.5401 296.976C79.6361 297.115 79.6841 297.264 79.6841 297.424C79.6841 297.616 79.6041 297.781 79.4441 297.92C79.2948 298.048 79.1188 298.112 78.9161 298.112C78.6175 298.112 78.3775 297.979 78.1961 297.712L76.0521 294.384C75.8068 294 75.5455 293.733 75.2681 293.584C74.9908 293.424 74.6281 293.344 74.1801 293.344H72.3721V297.248C72.3721 297.504 72.2975 297.707 72.1481 297.856C72.0095 298.005 71.8121 298.08 71.5561 298.08C71.3108 298.08 71.1135 298.005 70.9641 297.856C70.8148 297.707 70.7401 297.504 70.7401 297.248V287.52C70.7401 287.275 70.8095 287.083 70.9481 286.944C71.0975 286.795 71.3001 286.72 71.5561 286.72H75.5401C76.7881 286.72 77.7375 286.997 78.3881 287.552C79.0495 288.107 79.3801 288.917 79.3801 289.984C79.3801 290.869 79.1295 291.589 78.6281 292.144C78.1268 292.688 77.4121 293.035 76.4841 293.184C76.7615 293.259 77.0121 293.392 77.2361 293.584C77.4601 293.776 77.6788 294.043 77.8921 294.384L79.5401 296.976ZM75.3481 292.016C76.1801 292.016 76.7935 291.856 77.1881 291.536C77.5935 291.205 77.7961 290.699 77.7961 290.016C77.7961 289.333 77.5988 288.837 77.2041 288.528C76.8095 288.208 76.1908 288.048 75.3481 288.048H72.3561V292.016H75.3481ZM84.203 298.08C83.9577 298.08 83.7603 298.005 83.611 297.856C83.4617 297.707 83.387 297.504 83.387 297.248V287.472C83.387 287.227 83.4617 287.029 83.611 286.88C83.7603 286.72 83.9577 286.64 84.203 286.64C84.459 286.64 84.6617 286.715 84.811 286.864C84.9603 287.013 85.035 287.216 85.035 287.472V297.248C85.035 297.504 84.9603 297.707 84.811 297.856C84.6723 298.005 84.4697 298.08 84.203 298.08ZM90.0686 298.08C89.8233 298.08 89.626 298.005 89.4766 297.856C89.3273 297.707 89.2526 297.504 89.2526 297.248V287.52C89.2526 287.275 89.322 287.083 89.4606 286.944C89.61 286.795 89.8126 286.72 90.0686 286.72H93.9246C95.1193 286.72 96.0473 287.013 96.7086 287.6C97.37 288.187 97.7006 289.019 97.7006 290.096C97.7006 291.163 97.37 291.995 96.7086 292.592C96.0473 293.189 95.1193 293.488 93.9246 293.488H90.9006V297.248C90.9006 297.504 90.826 297.707 90.6766 297.856C90.538 298.005 90.3353 298.08 90.0686 298.08ZM93.7486 292.16C95.3273 292.16 96.1166 291.472 96.1166 290.096C96.1166 288.731 95.3273 288.048 93.7486 288.048H90.9006V292.16H93.7486ZM104.529 298.08C104.284 298.08 104.081 298.005 103.921 297.856C103.772 297.696 103.697 297.493 103.697 297.248V288.096H100.497C99.9849 288.096 99.7289 287.867 99.7289 287.408C99.7289 287.184 99.7929 287.013 99.9209 286.896C100.06 286.779 100.252 286.72 100.497 286.72H108.561C108.806 286.72 108.993 286.779 109.121 286.896C109.26 287.013 109.329 287.184 109.329 287.408C109.329 287.867 109.073 288.096 108.561 288.096H105.361V297.248C105.361 297.493 105.286 297.696 105.137 297.856C104.988 298.005 104.785 298.08 104.529 298.08Z" fill="#514B95"/>
<path d="M81 217H29C27.8954 217 27 217.895 27 219V271C27 272.105 27.8954 273 29 273H81C82.1046 273 83 272.105 83 271V219C83 217.895 82.1046 217 81 217Z" fill="#FEB546"/>
<path d="M64.6178 260.75C65.7458 262.592 67.2134 263.946 69.8089 263.946C71.9894 263.946 73.3823 262.856 73.3823 261.35C73.3823 259.546 71.9512 258.907 69.5512 257.857L68.2356 257.293C64.4383 255.675 61.9156 253.648 61.9156 249.364C61.9156 245.417 64.9227 242.413 69.6223 242.413C72.968 242.413 75.3734 243.577 77.1067 246.626L73.0089 249.257C72.1067 247.639 71.1334 247.002 69.6223 247.002C68.0809 247.002 67.104 247.98 67.104 249.257C67.104 250.836 68.0818 251.475 70.3396 252.453L71.6552 253.016C76.1263 254.933 78.6507 256.888 78.6507 261.283C78.6507 266.021 74.9289 268.616 69.9307 268.616C65.0436 268.616 61.8863 266.287 60.3414 263.235L64.6178 260.75ZM46.0285 261.206C46.8552 262.673 47.6072 263.913 49.4152 263.913C51.144 263.913 52.2347 263.237 52.2347 260.606V242.713H57.4969V260.677C57.4969 266.126 54.3023 268.606 49.6392 268.606C45.4258 268.606 42.9858 266.426 41.7449 263.8L46.0285 261.206Z" fill="white"/>
<circle cx="269" cy="57" r="5.5" stroke="#9794E2"/>
<circle cx="546" cy="181" r="5.5" stroke="#9794E2"/>
<circle cx="135" cy="176" r="5.5" stroke="#9794E2"/>
<circle cx="55" cy="319" r="5.5" stroke="#9794E2"/>
<path d="M227.923 84.9615C227.923 89.2096 219.654 92.6538 209.462 92.6538C199.269 92.6538 191 89.2096 191 84.9615M227.923 93.2308C227.923 97.4788 219.654 100.923 209.462 100.923C199.269 100.923 191 97.4788 191 93.2308M191 76.6192V101.381C191 105.588 199.269 109 209.462 109C219.654 109 227.923 105.588 227.923 101.381V76.6192M227.923 76.6923C227.923 80.9407 219.658 84.3846 209.462 84.3846C199.266 84.3846 191 80.9407 191 76.6923C191 72.444 199.266 69 209.462 69C219.658 69 227.923 72.444 227.923 76.6923Z" stroke="#EF2955" stroke-width="2" stroke-miterlimit="10" stroke-linecap="round"/>
<path d="M693 133H673C669.686 133 667 135.686 667 139V187C667 190.314 669.686 193 673 193H693C696.314 193 699 190.314 699 187V139C699 135.686 696.314 133 693 133Z" fill="#EC407A"/>
<path d="M673 133H676C676.265 133 676.52 133.105 676.707 133.293C676.895 133.48 677 133.735 677 134C677 134.53 677.211 135.039 677.586 135.414C677.961 135.789 678.47 136 679 136H687C687.53 136 688.039 135.789 688.414 135.414C688.789 135.039 689 134.53 689 134C689 133.735 689.105 133.48 689.293 133.293C689.48 133.105 689.735 133 690 133H693" fill="#EC407A"/>
<circle cx="683" cy="188.5" r="2" fill="white"/>
<rect x="677" y="135.5" width="12" height="2" rx="1" fill="white"/>
<path d="M569 445H736.189V328.603H569V445Z" fill="#4A4A4A"/>
<path d="M736.189 338.399H569V325H589.404H621.656H650.896H736.189V337.681V338.399ZM585.763 329.705C584.745 329.705 583.92 330.53 583.92 331.548C583.92 332.566 584.745 333.391 585.763 333.391C586.781 333.391 587.606 332.566 587.606 331.548C587.606 330.53 586.781 329.705 585.763 329.705ZM580.075 329.705C579.057 329.705 578.232 330.53 578.232 331.548C578.232 332.566 579.057 333.391 580.075 333.391C581.093 333.391 581.918 332.566 581.918 331.548C581.918 330.53 581.093 329.705 580.075 329.705ZM574.386 329.705C573.369 329.705 572.543 330.53 572.543 331.548C572.543 332.566 573.369 333.391 574.386 333.391C575.404 333.391 576.23 332.566 576.23 331.548C576.23 330.53 575.404 329.705 574.386 329.705ZM623.647 330.454V332.269H684.66V330.454H623.647Z" fill="#D762B6"/>
<path d="M574.386 333.391C573.369 333.391 572.543 332.566 572.543 331.547C572.543 330.529 573.369 329.705 574.386 329.705C575.404 329.705 576.23 330.529 576.23 331.547C576.23 332.566 575.404 333.391 574.386 333.391Z" fill="url(#paint0_linear)"/>
<path d="M580.075 333.391C579.057 333.391 578.232 332.566 578.232 331.547C578.232 330.529 579.057 329.705 580.075 329.705C581.093 329.705 581.918 330.529 581.918 331.547C581.918 332.566 581.093 333.391 580.075 333.391Z" fill="url(#paint1_linear)"/>
<path d="M585.763 333.391C584.745 333.391 583.92 332.566 583.92 331.547C583.92 330.529 584.745 329.705 585.763 329.705C586.781 329.705 587.606 330.529 587.606 331.547C587.606 332.566 586.781 333.391 585.763 333.391Z" fill="url(#paint2_linear)"/>
<path d="M623.647 332.269H684.66V330.454H623.647V332.269Z" fill="#EBB8F8"/>
<path d="M589.46 353.953H610.998V350.194H589.46V353.953Z" fill="#B55E7B"/>
<path d="M589.46 361.908H623.963V358.149H589.46V361.908Z" fill="#B55E7B"/>
<path d="M596.294 369.862H612.414V366.103H596.294V369.862Z" fill="#888888"/>
<path d="M589.46 385.771H622.528V382.013H589.46V385.771Z" fill="#B55E7B"/>
<path d="M596.294 393.726H641.738V389.967H596.294V393.726Z" fill="#888888"/>
<path d="M589.46 401.68H610.998V397.922H589.46V401.68Z" fill="#B55E7B"/>
<path d="M596.294 409.635H637.514V405.877H596.294V409.635Z" fill="#888888"/>
<path d="M589.46 425.544H621.298V421.786H589.46V425.544Z" fill="#B55E7B"/>
<path d="M596.294 433.499H654.507V429.741H596.294V433.499Z" fill="#888888"/>
<path d="M616.955 369.862H628.132V366.103H616.955V369.862Z" fill="#888888"/>
<path d="M629.363 385.771H651.584V382.013H629.363V385.771Z" fill="#888888"/>
<path d="M657.935 385.771H674.829V382.013H657.935V385.771Z" fill="#907CB3"/>
<path d="M617.54 401.68H654.208V397.922H617.54V401.68Z" fill="#888888"/>
<path d="M644.212 409.635H661.043V405.877H644.212V409.635Z" fill="#907CB3"/>
<path d="M666.987 409.635H699.846V405.877H666.987V409.635Z" fill="#888888"/>
<path d="M659.757 401.68H679.971V397.922H659.757V401.68Z" fill="#907CB3"/>
<path d="M685.343 401.68H716.253V397.922H685.343V401.68Z" fill="#888888"/>
<path d="M648.333 393.726H693.777V389.967H648.333V393.726Z" fill="#888888"/>
<path d="M580.866 353.953H584.321V350.194H580.866V353.953Z" fill="#707070"/>
<path d="M580.866 361.908H584.321V358.149H580.866V361.908Z" fill="#707070"/>
<path d="M580.866 369.862H584.321V366.103H580.866V369.862Z" fill="#707070"/>
<path d="M580.866 377.816H584.321V374.058H580.866V377.816Z" fill="#707070"/>
<path d="M580.866 385.771H584.321V382.013H580.866V385.771Z" fill="#707070"/>
<path d="M580.866 393.726H584.321V389.967H580.866V393.726Z" fill="#707070"/>
<path d="M580.866 401.68H584.321V397.922H580.866V401.68Z" fill="#707070"/>
<path d="M580.866 409.635H584.321V405.877H580.866V409.635Z" fill="#707070"/>
<path d="M580.866 417.59H584.321V413.831H580.866V417.59Z" fill="#707070"/>
<path d="M580.866 425.544H584.321V421.786H580.866V425.544Z" fill="#707070"/>
<path d="M580.866 433.499H584.321V429.741H580.866V433.499Z" fill="#707070"/>
<defs>
<linearGradient id="paint0_linear" x1="702.758" y1="315.894" x2="625.353" y2="340.284" gradientUnits="userSpaceOnUse">
<stop stop-color="#C3AEF2"/>
<stop offset="0.0799606" stop-color="#C3AEF2"/>
<stop offset="1" stop-color="#F3A5CD"/>
</linearGradient>
<linearGradient id="paint1_linear" x1="702.758" y1="315.894" x2="625.353" y2="340.284" gradientUnits="userSpaceOnUse">
<stop stop-color="#C3AEF2"/>
<stop offset="0.0799606" stop-color="#C3AEF2"/>
<stop offset="1" stop-color="#F3A5CD"/>
</linearGradient>
<linearGradient id="paint2_linear" x1="702.758" y1="315.894" x2="625.353" y2="340.284" gradientUnits="userSpaceOnUse">
<stop stop-color="#C3AEF2"/>
<stop offset="0.0799606" stop-color="#C3AEF2"/>
<stop offset="1" stop-color="#F3A5CD"/>
</linearGradient>
</defs>
</svg>
